<svg width="30" height="30" viewBox="0 0 30 30" fill="none" xmlns="http://www.w3.org/2000/svg">
<g clip-path="url(#clip0_1743_4093)">
<path d="M23.75 14.375V23.125C23.75 23.47 23.47 23.75 23.125 23.75C22.78 23.75 22.5 23.47 22.5 23.125V14.375C22.5 14.03 22.78 13.75 23.125 13.75C23.47 13.75 23.75 14.03 23.75 14.375ZM29.375 11.25C29.03 11.25 28.75 11.53 28.75 11.875V24.375C28.75 26.7875 26.7875 28.75 24.375 28.75H5.625C3.2125 28.75 1.25 26.7875 1.25 24.375V5.625C1.25 3.2125 3.2125 1.25 5.625 1.25H18.125C18.47 1.25 18.75 0.97 18.75 0.625C18.75 0.28 18.47 0 18.125 0H5.625C2.52375 0 0 2.52375 0 5.625V24.375C0 27.4762 2.52375 30 5.625 30H24.375C27.4762 30 30 27.4762 30 24.375V11.875C30 11.53 29.72 11.25 29.375 11.25ZM18.5287 5.27125L22.0662 3.9325L23.4825 0.3925C23.6725 -0.0825 24.4525 -0.0825 24.6438 0.3925L26.0625 3.9375L29.6075 5.35625C29.845 5.45125 30 5.68125 30 5.93625C30 6.19125 29.8438 6.42125 29.6075 6.51625L26.0625 7.935L24.6438 11.48C24.5488 11.7175 24.3187 11.8725 24.0637 11.8725C23.8087 11.8725 23.5788 11.7163 23.4838 11.48L22.0625 7.9275L18.5088 6.43C18.2738 6.33 18.1213 6.0975 18.1263 5.8425C18.1313 5.5875 18.2913 5.36 18.53 5.27L18.5287 5.27125ZM20.4325 5.8875L22.7875 6.88C22.9412 6.945 23.0625 7.06875 23.125 7.22375L24.0625 9.5675L25 7.22375C25.0637 7.065 25.1887 6.93875 25.3487 6.875L27.6925 5.9375L25.3487 5C25.19 4.93625 25.0637 4.81125 25 4.65125L24.0625 2.3075L23.125 4.65125C23.06 4.81375 22.93 4.94125 22.765 5.00375L20.4325 5.8875ZM13.99 7.80125L18.7213 22.94C18.825 23.2687 18.6413 23.62 18.3113 23.7225C18.25 23.7425 18.1862 23.7512 18.125 23.7512C17.8588 23.7512 17.6125 23.58 17.5287 23.3125L16.1038 18.7513H7.6475L6.2225 23.3125C6.11875 23.6425 5.7675 23.8263 5.44 23.7225C5.11 23.62 4.92625 23.2687 5.03 22.94L9.76125 7.80125C10.0563 6.85625 10.8875 6.245 11.8763 6.245C12.8663 6.245 13.695 6.85625 13.99 7.80125ZM15.7125 17.5013L12.7975 8.17375C12.6412 7.67375 12.2188 7.49625 11.875 7.49625C11.5312 7.49625 11.1088 7.675 10.9525 8.175L8.0375 17.5013H15.7125Z" fill="#1C274C"/>
</g>
<defs>
<clipPath id="clip0_1743_4093">
<rect width="30" height="30" fill="white"/>
</clipPath>
</defs>
</svg>
