<svg width="298" height="325" viewBox="0 0 298 325" fill="none" xmlns="http://www.w3.org/2000/svg">
<path d="M137.41 95.6669L72.07 57.9269C59.53 50.6969 44.07 50.6969 31.54 57.9269C12.02 69.1869 0 90.0269 0 112.547V211.557C0 231.777 9.7 250.647 25.81 262.427V217.737C19.41 215.427 15.12 208.707 16.58 201.257C17.68 195.677 22.16 191.187 27.73 190.067C36.97 188.207 45.12 195.267 45.12 204.187C45.12 210.437 41.14 215.757 35.59 217.737V257.077C35.59 264.157 39.37 270.707 45.5 274.247L61.41 283.427V120.297C53.82 118.187 48.27 111.237 48.27 102.957C48.27 92.3369 57.46 83.8469 68.35 85.0469C76.62 85.9569 83.34 92.7169 84.21 100.997C85.17 110.117 79.36 118.027 71.18 120.297V277.617C71.18 284.697 74.96 291.247 81.09 294.787L117.26 315.667C104.72 308.437 97 295.047 97 280.577V119.147C97 98.4069 119.4 85.4069 137.41 95.6669ZM30.7 175.357C22.73 175.357 16.28 168.907 16.28 160.937C16.28 152.987 22.73 146.517 30.7 146.517C38.65 146.517 45.12 152.987 45.12 160.937C45.12 168.907 38.65 175.357 30.7 175.357Z" fill="url(#paint0_linear_1363_1204)"/>
<path d="M96.99 205.117L96.98 280.577C96.99 295.057 104.72 308.447 117.24 315.677C136.75 326.947 160.8 326.937 180.31 315.677L266.05 266.177C283.56 256.067 295.05 238.237 297.2 218.387L258.5 240.737C259.7 247.437 256.03 254.507 248.84 256.967C243.46 258.807 237.33 257.167 233.57 252.907C227.33 245.837 229.37 235.247 237.1 230.787C242.52 227.657 249.11 228.447 253.6 232.267L287.67 212.597C293.8 209.057 297.58 202.507 297.58 195.427V177.057L156.31 258.617C158.28 266.237 155.03 274.527 147.87 278.667C138.67 283.977 126.72 280.267 122.32 270.227C118.97 262.607 121.46 253.417 128.2 248.517C135.62 243.127 145.37 244.207 151.43 250.157L287.67 171.497C293.8 167.957 297.58 161.407 297.58 154.327V112.567C297.59 127.047 289.85 140.417 277.32 147.657L137.51 228.377C119.57 238.737 97.12 225.827 96.99 205.117ZM219.36 257.677C223.34 264.577 220.98 273.387 214.08 277.367C207.2 281.337 198.37 278.987 194.39 272.087C190.42 265.207 192.78 256.367 199.67 252.397C206.56 248.417 215.39 250.797 219.36 257.677Z" fill="url(#paint1_linear_1363_1204)"/>
<path d="M211.98 185.387L277.34 147.667C289.87 140.417 297.6 127.027 297.6 112.567C297.6 90.0368 285.57 69.2068 266.06 57.9468L180.32 8.44677C162.81 -1.66323 141.62 -2.70326 123.36 5.35674L162.06 27.7068C167.26 23.3168 175.22 22.9568 180.94 27.9568C185.22 31.6968 186.87 37.8268 185.06 43.2068C182.05 52.1468 171.86 55.6767 164.14 51.2167C158.72 48.0867 156.11 41.9868 157.17 36.1868L123.1 16.5168C116.97 12.9768 109.41 12.9768 103.27 16.5168L87.36 25.7068L228.63 107.267C234.25 101.747 243.05 100.417 250.21 104.557C259.41 109.867 262.17 122.067 255.68 130.897C250.75 137.607 241.55 140.047 233.94 136.657C225.57 132.927 221.62 123.937 223.74 115.717L87.52 37.0568C81.39 33.5168 73.83 33.5168 67.7 37.0568L31.54 57.9368C44.07 50.6868 59.52 50.7068 72.05 57.9368L211.86 138.657C229.81 149.027 229.87 174.927 211.98 185.387ZM196.32 53.1368C200.3 46.2368 209.12 43.8767 216.01 47.8567C222.89 51.8267 225.27 60.6567 221.29 67.5467C217.32 74.4267 208.48 76.7968 201.6 72.8268C194.7 68.8468 192.35 60.0168 196.32 53.1368Z" fill="url(#paint2_linear_1363_1204)"/>
<defs>
<linearGradient id="paint0_linear_1363_1204" x1="25.6459" y1="262.782" x2="125.954" y2="89.044" gradientUnits="userSpaceOnUse">
<stop stop-color="#10ADF3"/>
<stop offset="1" stop-color="#013A72"/>
</linearGradient>
<linearGradient id="paint1_linear_1363_1204" x1="297.602" y1="218.34" x2="96.985" y2="218.342" gradientUnits="userSpaceOnUse">
<stop stop-color="#10ADF3"/>
<stop offset="1" stop-color="#013A72"/>
</linearGradient>
<linearGradient id="paint2_linear_1363_1204" x1="123.137" y1="5.04053" x2="223.443" y2="178.779" gradientUnits="userSpaceOnUse">
<stop stop-color="#969696"/>
<stop offset="1" stop-color="#545454"/>
</linearGradient>
</defs>
</svg>
