<svg width="512" height="512" viewBox="0 0 512 512" fill="none" xmlns="http://www.w3.org/2000/svg">
<path d="M405.316 256V384C405.316 395.776 395.759 405.333 383.984 405.333C372.208 405.333 362.652 395.776 362.652 384V256C362.652 244.224 372.208 234.667 383.984 234.667C395.759 234.667 405.316 244.224 405.316 256ZM247.03 143.296L312.542 378.581C316.275 392.021 306.185 405.333 292.212 405.333C282.762 405.333 274.485 399.061 271.903 389.973L258.187 341.333H147.13L133.413 389.973C130.853 399.061 122.555 405.333 113.105 405.333C99.1532 405.333 89.0416 392.021 92.7748 378.581L158.713 141.611C161.721 128.64 170.254 117.717 182.136 111.637C194.253 105.408 208.162 105.024 221.367 110.571C233.889 115.819 243.489 128 247.051 143.317L247.03 143.296ZM246.155 298.667L205.005 152.853C204.386 150.421 200.93 150.421 200.333 152.853L159.183 298.667H246.155ZM490.668 213.333C478.892 213.333 469.335 222.891 469.335 234.667V405.333C469.335 440.619 440.622 469.333 405.338 469.333H106.662C71.3784 469.333 42.6649 440.619 42.6649 405.333V106.667C42.6649 71.3813 71.3784 42.6667 106.662 42.6667H277.322C289.097 42.6667 298.654 33.1093 298.654 21.3333C298.654 9.55733 289.097 0 277.322 0H106.662C47.8487 0 0 47.8507 0 106.667V405.333C0 464.149 47.8487 512 106.662 512H405.316C464.13 512 511.979 464.149 511.979 405.333V234.667C511.979 222.891 502.422 213.333 490.646 213.333H490.668ZM344.54 110.507L384.389 127.296L400.282 167.083C403.717 175.701 412.058 181.333 421.337 181.333C430.617 181.333 438.936 175.68 442.392 167.083L458.2 127.531L497.75 111.723C506.368 108.288 512 99.9467 512 90.6667C512 81.3867 506.347 73.0667 497.75 69.6107L458.2 53.8027L442.392 14.2507C438.915 5.65333 430.574 0 421.316 0C412.057 0 403.716 5.65333 400.261 14.2507L384.539 53.568L345.287 68.4373C336.626 71.7227 330.824 79.9573 330.653 89.216C330.482 98.496 335.986 106.923 344.519 110.528L344.54 110.507Z" fill="#1C274C"/>
</svg>
