<svg width="512" height="512" viewBox="0 0 512 512" fill="none" xmlns="http://www.w3.org/2000/svg">
<path d="M106.662 0.5H277.321C288.821 0.5 298.154 9.83328 298.154 21.333C298.154 32.8329 288.821 42.167 277.321 42.167H106.662C71.1021 42.1671 42.165 71.1056 42.165 106.667V405.333C42.165 440.894 71.1021 469.833 106.662 469.833H405.338C440.898 469.833 469.835 440.894 469.835 405.333V234.667C469.835 223.171 479.162 213.839 490.656 213.833C502.151 213.838 511.479 223.17 511.479 234.667V405.333C511.479 463.873 463.854 511.5 405.316 511.5H106.662C48.1248 511.5 0.5 463.873 0.5 405.333V106.667C0.5 48.1271 48.1248 0.500058 106.662 0.5ZM182.365 112.082C194.343 105.924 208.097 105.539 221.173 111.031L221.174 111.032C233.047 116.009 242.292 127.325 246.127 141.687L246.038 141.598L246.548 143.43L312.06 378.716C315.704 391.838 305.853 404.833 292.212 404.833C283.13 404.833 275.158 398.9 272.507 390.251L272.385 389.837L258.668 341.197L258.565 340.833H146.751L146.648 341.197L132.932 389.838C130.433 398.71 122.331 404.833 113.104 404.833C99.4842 404.833 89.6125 391.837 93.2568 378.716L159.195 141.745L159.198 141.734L159.2 141.724C162.175 128.897 170.613 118.095 182.364 112.082H182.365ZM383.984 235.167C395.484 235.167 404.816 244.5 404.816 256V384C404.816 395.5 395.484 404.833 383.984 404.833C372.485 404.833 363.151 395.5 363.151 384V256C363.151 244.5 372.485 235.167 383.984 235.167ZM205.485 152.718C204.756 149.896 200.827 149.793 199.925 152.467L199.852 152.718L158.701 298.531L158.522 299.167H246.815L246.637 298.531L205.486 152.718H205.485ZM421.315 0.5C430.368 0.5 438.526 6.02733 441.928 14.4355V14.4365L457.735 53.9883L457.814 54.1875L458.014 54.2666L497.564 70.0752V70.0742C505.972 73.4546 511.5 81.5924 511.5 90.667C511.5 99.7431 505.992 107.899 497.564 111.258V111.259L458.014 127.066L457.814 127.146L457.735 127.345L441.928 166.897C438.547 175.306 430.411 180.833 421.337 180.833C412.261 180.833 404.104 175.325 400.746 166.897L384.854 127.11L384.776 126.916L384.583 126.835L344.734 110.046L344.425 109.915L344.405 109.934C336.236 106.336 330.988 98.188 331.152 89.2256C331.319 80.1717 336.994 72.1183 345.464 68.9053L384.716 54.0352L384.921 53.958L385.003 53.7539L400.725 14.4375C404.105 6.02901 412.262 0.500132 421.315 0.5Z" fill="white" stroke="black"/>
</svg>
