<svg width="30" height="30" viewBox="0 0 30 30" fill="none" xmlns="http://www.w3.org/2000/svg">
<g clip-path="url(#clip0_1743_4067)">
<path d="M0 17.8125C0 15.7788 1.03375 13.9062 2.72625 12.8175C2.57625 12.1 2.5 11.3638 2.5 10.625C2.5 4.76625 7.26625 0 13.125 0C17.4013 0 21.1913 2.5 22.8775 6.4025C26.9638 7.17375 30 10.8062 30 15C30 18.4887 27.9412 21.4937 24.98 22.895C24.985 22.7625 25 22.6325 25 22.5C25 22.1663 24.9825 21.8375 24.95 21.5112C27.2162 20.2212 28.75 17.79 28.75 15C28.75 11.3025 25.995 8.1125 22.3425 7.57875L21.9837 7.52625C20.6462 3.7575 17.1325 1.23875 13.125 1.24875C7.955 1.24875 3.75 5.45375 3.75 10.6237C3.7425 11.5812 3.91125 12.5275 4.16625 13.4413L3.7325 13.6725C2.2 14.4912 1.24875 16.0762 1.24875 17.8112C1.24875 20.0762 2.865 21.97 5.00375 22.4038C4.9875 22.8263 5.0275 23.2488 5.0725 23.6613C2.21 23.2388 0 20.7887 0 17.8112V17.8125ZM17.5 13.75C17.5 15.1288 16.3788 16.25 15 16.25C13.6212 16.25 12.5 15.1288 12.5 13.75C12.5 12.3712 13.6212 11.25 15 11.25C16.3788 11.25 17.5 12.3712 17.5 13.75ZM16.25 13.75C16.25 13.0613 15.6887 12.5 15 12.5C14.3113 12.5 13.75 13.0613 13.75 13.75C13.75 14.4387 14.3113 15 15 15C15.6887 15 16.25 14.4387 16.25 13.75ZM20.515 19.1675L18.62 18.0525C18.11 18.4775 17.5187 18.81 16.875 19.035V21.2488H13.125V19.035C12.4813 18.81 11.89 18.4775 11.38 18.0525L9.485 19.1675L7.58375 15.935L9.4925 14.8137C9.4125 14.44 9.375 14.0938 9.375 13.7513C9.375 13.4088 9.4125 13.0625 9.4925 12.6888L7.58375 11.5675L9.485 8.335L11.38 9.45C11.89 9.025 12.4813 8.6925 13.125 8.4675V6.25375H16.875V8.4675C17.5187 8.6925 18.11 9.025 18.62 9.45L20.515 8.335L22.4163 11.5675L20.5075 12.6888C20.5875 13.0625 20.625 13.4088 20.625 13.7513C20.625 14.0938 20.5875 14.44 20.5075 14.8137L22.4163 15.935L20.515 19.1675ZM20.0712 17.4563L20.705 16.3787L19.055 15.4087C19.2125 14.8862 19.3925 14.2225 19.3763 13.75C19.3925 13.2787 19.2125 12.6125 19.055 12.0913L20.705 11.1213L20.0712 10.0437L18.4388 11.0038C17.7213 10.175 16.7275 9.62125 15.625 9.41125V7.5H14.375V9.41125C13.2712 9.62125 12.2787 10.1738 11.5612 11.0038L9.92875 10.0437L9.295 11.1213L10.945 12.0913C10.7875 12.6138 10.6075 13.2775 10.6237 13.75C10.6075 14.2213 10.7875 14.8875 10.945 15.4087L9.295 16.3787L9.92875 17.4563L11.5612 16.4962C12.28 17.3262 13.2725 17.8762 14.375 18.0887V19.9987H15.625V18.0887C16.7275 17.8762 17.72 17.325 18.4388 16.4962L20.0712 17.4563ZM30 27.5C30 28.8788 28.8788 30 27.5 30C26.3387 30 25.3687 29.2 25.0887 28.125H20V22.5H21.25V26.875H25.0887C25.3687 25.8 26.3387 25 27.5 25C28.8788 25 30 26.1212 30 27.5ZM28.75 27.5C28.75 26.81 28.1887 26.25 27.5 26.25C26.8113 26.25 26.25 26.81 26.25 27.5C26.25 28.19 26.8113 28.75 27.5 28.75C28.1887 28.75 28.75 28.19 28.75 27.5ZM17.5 27.5C17.5 28.8788 16.3788 30 15 30C13.6212 30 12.5 28.8788 12.5 27.5C12.5 26.3387 13.3 25.3687 14.375 25.0887V22.5H15.625V25.0887C16.7 25.3687 17.5 26.3387 17.5 27.5ZM16.25 27.5C16.25 26.81 15.6887 26.25 15 26.25C14.3113 26.25 13.75 26.81 13.75 27.5C13.75 28.19 14.3113 28.75 15 28.75C15.6887 28.75 16.25 28.19 16.25 27.5ZM8.75 22.5H10V28.125H4.91125C4.63125 29.2 3.66125 30 2.5 30C1.12125 30 0 28.8788 0 27.5C0 26.1212 1.12125 25 2.5 25C3.66125 25 4.63125 25.8 4.91125 26.875H8.75V22.5ZM3.75 27.5C3.75 26.81 3.18875 26.25 2.5 26.25C1.81125 26.25 1.25 26.81 1.25 27.5C1.25 28.19 1.81125 28.75 2.5 28.75C3.18875 28.75 3.75 28.19 3.75 27.5Z" fill="white"/>
</g>
<defs>
<clipPath id="clip0_1743_4067">
<rect width="30" height="30" fill="white"/>
</clipPath>
</defs>
</svg>
