<svg width="38" height="38" viewBox="0 0 38 38" fill="none" xmlns="http://www.w3.org/2000/svg">
<path fill-rule="evenodd" clip-rule="evenodd" d="M9.3457 20.0793H10.7018L11.4694 17.8287H14.6779L15.4397 20.0793H16.7958L13.7719 11.752H12.3754L9.3457 20.0793ZM13.0621 13.1312H13.0852L14.3259 16.7899H11.8156L13.0621 13.1312Z" fill="#1C274C"/>
<path fill-rule="evenodd" clip-rule="evenodd" d="M17.7188 20.0793H19.0114V17.2343H20.8176C22.4508 17.2343 23.5819 16.1205 23.5819 14.4931V14.4816C23.5819 12.8485 22.4508 11.752 20.8176 11.752H17.7188V20.0793ZM20.4946 12.8427C21.6199 12.8427 22.2661 13.4486 22.2661 14.4874V14.4989C22.2661 15.5434 21.6199 16.1494 20.4946 16.1494H19.0114V12.8427H20.4946Z" fill="#1C274C"/>
<path d="M26.0056 20.0793H24.7129V11.752H26.0056V20.0793Z" fill="#1C274C"/>
<path fill-rule="evenodd" clip-rule="evenodd" d="M29.9169 24.6987V24.7H24.6963V27.8379H29.0374C29.4517 27.8379 29.7874 28.1737 29.7874 28.5879V31.441C30.0289 31.5053 30.2659 31.6021 30.4926 31.733C31.8793 32.5335 32.3544 34.3066 31.5538 35.6933C30.7532 37.0799 28.9801 37.555 27.5935 36.7544C26.2068 35.9539 25.7317 34.1808 26.5323 32.7941C26.9316 32.1025 27.5729 31.6376 28.2874 31.4447V29.3379H23.9463C23.7474 29.3379 23.5566 29.2589 23.416 29.1183C23.2753 28.9776 23.1963 28.7868 23.1963 28.5879V24.7H19.5879V31.4425C20.8255 31.773 21.7371 32.9019 21.7371 34.2437C21.7371 35.8449 20.4391 37.1429 18.8379 37.1429C17.2368 37.1429 15.9388 35.8449 15.9388 34.2437C15.9388 32.9019 16.8503 31.7731 18.0879 31.4425V24.7H14.4794V28.569C14.4794 28.9832 14.1436 29.319 13.7294 29.319H9.38831V31.4447C10.1028 31.6376 10.7441 32.1025 11.1434 32.7941C11.944 34.1808 11.4689 35.9539 10.0822 36.7544C8.69561 37.555 6.9225 37.0799 6.12192 35.6933C5.32134 34.3066 5.79644 32.5335 7.18308 31.733C7.4098 31.6021 7.64685 31.5053 7.88829 31.441V28.569C7.88829 28.1548 8.22411 27.819 8.63831 27.819H12.9794V24.7H7.57716C3.80707 24.6489 0.766602 21.5761 0.766602 17.7938C0.766602 14.4177 3.18913 11.6074 6.39072 11.0064C6.34749 10.6476 6.32524 10.2823 6.32524 9.91179C6.32524 4.91012 10.3799 0.855469 15.3815 0.855469C18.7106 0.855469 21.6202 2.65174 23.1938 5.32794C23.5962 5.24913 24.0121 5.20783 24.4376 5.20783C27.3702 5.20783 29.8446 7.16964 30.62 9.85249C34.3401 10.2672 37.2325 13.4223 37.2325 17.2531C37.2325 21.322 33.9691 24.6287 29.9169 24.6987ZM29.8274 23.2L29.891 23.1989C33.1265 23.143 35.7325 20.5022 35.7325 17.2531C35.7325 14.195 33.4229 11.6742 30.4538 11.3433L29.4574 11.2322L29.179 10.269C28.5841 8.21059 26.6844 6.70783 24.4376 6.70783C24.1094 6.70783 23.79 6.73966 23.4821 6.79997L22.4394 7.00418L21.9008 6.08826C20.5855 3.8514 18.1574 2.35547 15.3815 2.35547C11.2083 2.35547 7.82524 5.73855 7.82524 9.91179C7.82524 10.2222 7.84387 10.5276 7.87995 10.827L8.04801 12.2216L6.66746 12.4807C4.16212 12.951 2.2666 15.1526 2.2666 17.7938C2.2666 20.7544 4.64671 23.1594 7.59751 23.1994L7.64138 23.2H29.8274ZM17.4388 34.2437C17.4388 35.0165 18.0652 35.6429 18.8379 35.6429C19.6107 35.6429 20.2371 35.0165 20.2371 34.2437C20.2371 33.471 19.6107 32.8446 18.8379 32.8446C18.0652 32.8446 17.4388 33.471 17.4388 34.2437ZM30.2548 34.9433C29.8684 35.6125 29.0127 35.8418 28.3435 35.4554C27.6743 35.069 27.445 34.2133 27.8314 33.5441C28.2177 32.8749 29.0734 32.6456 29.7426 33.032C30.4119 33.4184 30.6411 34.2741 30.2548 34.9433ZM7.42096 34.9433C7.80732 35.6125 8.66301 35.8418 9.33221 35.4554C10.0014 35.069 10.2307 34.2133 9.84441 33.5441C9.45801 32.8749 8.60231 32.6456 7.93308 33.032C7.26388 33.4184 7.03459 34.2741 7.42096 34.9433Z" fill="#1C274C"/>
<path fill-rule="evenodd" clip-rule="evenodd" d="M29.3803 11.3246L29.0833 10.2971C28.5004 8.28048 26.6391 6.80822 24.438 6.80822C24.1162 6.80822 23.8034 6.83942 23.5017 6.8985L22.3895 7.11632L21.815 6.13934C20.5169 3.9318 18.1209 2.45586 15.3819 2.45586C11.2639 2.45586 7.92563 5.79417 7.92563 9.91218C7.92563 10.2186 7.94402 10.52 7.97962 10.8155L8.1588 12.303L6.6863 12.5794C4.22743 13.041 2.36699 15.202 2.36699 17.7942C2.36699 20.7001 4.70308 23.0606 7.59925 23.0998L7.64177 23.1004H29.827L29.8897 23.0993C33.0707 23.0444 35.6329 20.448 35.6329 17.2535C35.6329 14.2468 33.3622 11.7684 30.4431 11.443L29.3803 11.3246ZM29.8278 23.2004L29.8914 23.1993C33.1269 23.1434 35.7329 20.5026 35.7329 17.2535C35.7329 14.1954 33.4233 11.6746 30.4542 11.3437L29.4578 11.2326L29.1794 10.2694C28.5845 8.21098 26.6848 6.70822 24.438 6.70822C24.1098 6.70822 23.7904 6.74005 23.4825 6.80036L22.4398 7.00457L21.9012 6.08865C20.5859 3.85179 18.1578 2.35586 15.3819 2.35586C11.2087 2.35586 7.82563 5.73894 7.82563 9.91218C7.82563 10.2226 7.84426 10.528 7.88034 10.8274L8.0484 12.222L6.66785 12.4811C4.16251 12.9514 2.26699 15.153 2.26699 17.7942C2.26699 20.7548 4.6471 23.1598 7.5979 23.1998L7.64177 23.2004H29.8278ZM7.57755 24.7004C3.80746 24.6493 0.766992 21.5765 0.766992 17.7942C0.766992 14.4181 3.18952 11.6078 6.39111 11.0068C6.34788 10.648 6.32563 10.2827 6.32563 9.91218C6.32563 4.91051 10.3803 0.85586 15.3819 0.85586C18.711 0.85586 21.6206 2.65213 23.1942 5.32833C23.5966 5.24952 24.0125 5.20822 24.438 5.20822C27.3706 5.20822 29.845 7.17003 30.6204 9.85288C34.3405 10.2676 37.2329 13.4227 37.2329 17.2535C37.2329 21.3224 33.9695 24.6291 29.9173 24.6991V24.7004H24.6967V27.8383H29.0378C29.4521 27.8383 29.7878 28.1741 29.7878 28.5883V31.4414C30.0293 31.5057 30.2663 31.6025 30.493 31.7334C31.8797 32.5339 32.3548 34.307 31.5542 35.6937C30.7536 37.0803 28.9805 37.5554 27.5939 36.7548C26.2072 35.9543 25.7321 34.1812 26.5327 32.7945C26.932 32.1029 27.5733 31.638 28.2878 31.4451V29.3383H23.9467C23.7478 29.3383 23.557 29.2593 23.4164 29.1187C23.2757 28.978 23.1967 28.7872 23.1967 28.5883V24.7004H19.5883V31.4429C20.8259 31.7734 21.7375 32.9023 21.7375 34.2441C21.7375 35.8453 20.4395 37.1433 18.8383 37.1433C17.2372 37.1433 15.9392 35.8453 15.9392 34.2441C15.9392 32.9023 16.8507 31.7735 18.0883 31.4429V24.7004H14.4798V28.5694C14.4798 28.9836 14.144 29.3194 13.7298 29.3194H9.3887V31.4451C10.1032 31.638 10.7445 32.1029 11.1438 32.7945C11.9444 34.1812 11.4693 35.9543 10.0826 36.7548C8.696 37.5554 6.92289 37.0803 6.12231 35.6937C5.32173 34.307 5.79683 32.5339 7.18347 31.7334C7.41019 31.6025 7.64724 31.5057 7.88868 31.4414V28.5694C7.88868 28.1552 8.2245 27.8194 8.6387 27.8194H12.9798V24.7004H7.57755ZM12.8798 24.8004H7.5762C3.75147 24.7485 0.666992 21.6312 0.666992 17.7942C0.666992 14.4014 3.07861 11.572 6.28117 10.9264C6.24447 10.5933 6.22563 10.2549 6.22563 9.91218C6.22563 4.85528 10.325 0.755859 15.3819 0.755859C18.7227 0.755859 21.6454 2.54504 23.2444 5.21698C23.6315 5.14554 24.0304 5.10822 24.438 5.10822C27.3929 5.10822 29.8896 7.06951 30.6976 9.76118C34.4358 10.2113 37.3329 13.394 37.3329 17.2535C37.3329 21.3441 34.0784 24.6746 30.0173 24.7968V24.8004H24.7967V27.7383H29.0378C29.5073 27.7383 29.8878 28.1189 29.8878 28.5883V31.3656C30.112 31.4315 30.3319 31.5249 30.543 31.6467C31.9775 32.4749 32.469 34.3092 31.6408 35.7437C30.8126 37.1781 28.9784 37.6696 27.5439 36.8414C26.1094 36.0132 25.6179 34.179 26.4461 32.7445C26.8454 32.053 27.4786 31.5806 28.1878 31.3696V29.4383H23.9467C23.7213 29.4383 23.5051 29.3488 23.3457 29.1894C23.1862 29.03 23.0967 28.8138 23.0967 28.5883V24.8004H19.6883V31.3671C20.9307 31.7336 21.8375 32.8828 21.8375 34.2441C21.8375 35.9005 20.4947 37.2433 18.8383 37.2433C17.182 37.2433 15.8392 35.9005 15.8392 34.2441C15.8392 32.8829 16.746 31.7337 17.9883 31.3672V24.8004H14.5798V28.5694C14.5798 29.0388 14.1993 29.4194 13.7298 29.4194H9.4887V31.3696C10.1979 31.5806 10.8312 32.053 11.2304 32.7445C12.0586 34.179 11.5671 36.0132 10.1326 36.8414C8.6982 37.6696 6.8639 37.1781 6.0357 35.7437C5.20751 34.3092 5.699 32.4749 7.13347 31.6467C7.3446 31.5249 7.56451 31.4315 7.78868 31.3656V28.5694C7.78868 28.1 8.1692 27.7194 8.6387 27.7194H12.8798V24.8004ZM9.2028 20.1794L12.3052 11.6521H13.8419L16.9384 20.1794H15.3678L14.6061 17.9288H11.5408L10.7733 20.1794H9.2028ZM11.4693 17.8288H14.6778L15.4396 20.0794H16.7957L13.7718 11.7521H12.3753L9.3456 20.0794H10.7017L11.4693 17.8288ZM17.619 20.1794V11.6521H20.8179C21.6573 11.6521 22.3746 11.9343 22.8825 12.4331C23.3906 12.9322 23.6821 13.6413 23.6821 14.4817V14.4932C23.6821 15.3308 23.3906 16.0426 22.8828 16.5451C22.3751 17.0476 21.6577 17.3344 20.8179 17.3344H19.1117V20.1794H17.619ZM19.0117 20.0794H17.719V11.7521H20.8179C22.4511 11.7521 23.5821 12.8486 23.5821 14.4817V14.4932C23.5821 16.1206 22.4511 17.2344 20.8179 17.2344H19.0117V20.0794ZM26.1059 20.1794H24.6132V11.6521H26.1059V20.1794ZM17.5392 34.2441C17.5392 34.9616 18.1208 35.5433 18.8383 35.5433C19.5559 35.5433 20.1375 34.9616 20.1375 34.2441C20.1375 33.5266 19.5559 32.945 18.8383 32.945C18.1208 32.945 17.5392 33.5266 17.5392 34.2441ZM28.3939 35.3692C29.0153 35.7279 29.8098 35.5151 30.1686 34.8937C30.5273 34.2723 30.3144 33.4777 29.6931 33.119C29.0717 32.7602 28.2771 32.9731 27.9184 33.5945C27.5596 34.2159 27.7725 35.0104 28.3939 35.3692ZM7.50795 34.8937C7.8667 35.5151 8.6613 35.7279 9.2826 35.3692C9.904 35.0104 10.1169 34.2159 9.7582 33.5945C9.3994 32.9731 8.6048 32.7602 7.98347 33.119C7.36209 33.4777 7.1492 34.2723 7.50795 34.8937ZM14.3258 16.79H11.8155L13.062 13.1313H13.0851L14.3258 16.79ZM13.0733 13.4081L11.9552 16.69H14.1863L13.0733 13.4081ZM21.7344 13.3488C21.4559 13.0895 21.0402 12.9428 20.4948 12.9428H19.1117V16.0495H20.4948C21.0402 16.0495 21.4558 15.9028 21.7344 15.6428C22.0119 15.3838 22.1664 15.0002 22.1664 14.499V14.4875C22.1664 13.9893 22.012 13.6072 21.7344 13.3488ZM18.8383 35.6433C18.0656 35.6433 17.4392 35.0169 17.4392 34.2441C17.4392 33.4714 18.0656 32.845 18.8383 32.845C19.6111 32.845 20.2375 33.4714 20.2375 34.2441C20.2375 35.0169 19.6111 35.6433 18.8383 35.6433ZM28.3439 35.4558C29.0131 35.8422 29.8688 35.6129 30.2552 34.9437C30.6415 34.2745 30.4123 33.4188 29.743 33.0324C29.0738 32.646 28.2181 32.8753 27.8318 33.5445C27.4454 34.2137 27.6747 35.0694 28.3439 35.4558ZM9.3326 35.4558C8.6634 35.8422 7.80771 35.6129 7.42135 34.9437C7.03498 34.2745 7.26427 33.4188 7.93347 33.0324C8.6027 32.646 9.4584 32.8753 9.8448 33.5445C10.2311 34.2137 10.0018 35.0694 9.3326 35.4558ZM22.2664 14.4875C22.2664 13.4487 21.6201 12.8428 20.4948 12.8428H19.0117V16.1495H20.4948C21.6201 16.1495 22.2664 15.5435 22.2664 14.499V14.4875ZM24.7132 20.0794V11.7521H26.0059V20.0794H24.7132Z" fill="#1C274C"/>
</svg>
