<svg width="37" height="37" viewBox="0 0 37 37" fill="none" xmlns="http://www.w3.org/2000/svg">
<path fill-rule="evenodd" clip-rule="evenodd" d="M8.67871 19.3234H10.0348L10.8024 17.0728H14.0109L14.7727 19.3234H16.1288L13.1049 10.9961H11.7084L8.67871 19.3234ZM12.3951 12.3753H12.4182L13.6589 16.034H11.1486L12.3951 12.3753Z" fill="white"/>
<path fill-rule="evenodd" clip-rule="evenodd" d="M17.0518 19.3234H18.3445V16.4784H20.1507C21.7839 16.4784 22.9149 15.3646 22.9149 13.7372V13.7257C22.9149 12.0926 21.7839 10.9961 20.1507 10.9961H17.0518V19.3234ZM19.8276 12.0868C20.9529 12.0868 21.5992 12.6927 21.5992 13.7315V13.743C21.5992 14.7875 20.9529 15.3935 19.8276 15.3935H18.3445V12.0868H19.8276Z" fill="white"/>
<path d="M25.3386 19.3234H24.0459V10.9961H25.3386V19.3234Z" fill="white"/>
<path fill-rule="evenodd" clip-rule="evenodd" d="M29.2499 23.9428V23.9441H24.0293V27.082H28.3704C28.7847 27.082 29.1204 27.4178 29.1204 27.832V30.6851C29.3619 30.7494 29.5989 30.8462 29.8256 30.9771C31.2123 31.7776 31.6874 33.5507 30.8868 34.9374C30.0862 36.324 28.3131 36.7991 26.9265 35.9985C25.5398 35.198 25.0647 33.4249 25.8653 32.0382C26.2646 31.3466 26.9059 30.8817 27.6204 30.6888V28.582H23.2793C23.0804 28.582 22.8896 28.503 22.749 28.3624C22.6083 28.2217 22.5293 28.0309 22.5293 27.832V23.9441H18.9209V30.6866C20.1585 31.0171 21.0701 32.146 21.0701 33.4878C21.0701 35.089 19.7721 36.387 18.1709 36.387C16.5698 36.387 15.2718 35.089 15.2718 33.4878C15.2718 32.146 16.1833 31.0172 17.4209 30.6866V23.9441H13.8124V27.8131C13.8124 28.2273 13.4766 28.5631 13.0624 28.5631H8.72132V30.6888C9.43582 30.8817 10.0771 31.3466 10.4764 32.0382C11.277 33.4249 10.8019 35.198 9.41522 35.9985C8.02862 36.7991 6.25551 36.324 5.45493 34.9374C4.65435 33.5507 5.12945 31.7776 6.51609 30.9771C6.74281 30.8462 6.97986 30.7494 7.2213 30.6851V27.8131C7.2213 27.3989 7.55712 27.0631 7.97132 27.0631H12.3124V23.9441H6.91017C3.14008 23.893 0.0996094 20.8202 0.0996094 17.0379C0.0996094 13.6618 2.52214 10.8515 5.72373 10.2505C5.6805 9.89173 5.65825 9.52643 5.65825 9.15593C5.65825 4.15426 9.71292 0.0996094 14.7145 0.0996094C18.0436 0.0996094 20.9532 1.89588 22.5268 4.57208C22.9292 4.49327 23.3451 4.45197 23.7706 4.45197C26.7032 4.45197 29.1776 6.41378 29.953 9.09663C33.6731 9.51133 36.5655 12.6664 36.5655 16.4972C36.5655 20.5661 33.3021 23.8728 29.2499 23.9428ZM29.1604 22.4441L29.224 22.443C32.4595 22.3871 35.0655 19.7463 35.0655 16.4972C35.0655 13.4391 32.7559 10.9183 29.7868 10.5874L28.7904 10.4763L28.512 9.51313C27.9171 7.45473 26.0174 5.95197 23.7706 5.95197C23.4424 5.95197 23.123 5.9838 22.8151 6.04411L21.7724 6.24832L21.2338 5.3324C19.9185 3.09554 17.4904 1.59961 14.7145 1.59961C10.5413 1.59961 7.15825 4.98269 7.15825 9.15593C7.15825 9.46633 7.17688 9.77173 7.21296 10.0711L7.38102 11.4657L6.00047 11.7248C3.49513 12.1951 1.59961 14.3967 1.59961 17.0379C1.59961 19.9985 3.97972 22.4035 6.93052 22.4435L6.97439 22.4441H29.1604ZM16.7718 33.4878C16.7718 34.2606 17.3982 34.887 18.1709 34.887C18.9437 34.887 19.5701 34.2606 19.5701 33.4878C19.5701 32.7151 18.9437 32.0887 18.1709 32.0887C17.3982 32.0887 16.7718 32.7151 16.7718 33.4878ZM29.5878 34.1874C29.2014 34.8566 28.3457 35.0859 27.6765 34.6995C27.0073 34.3131 26.778 33.4574 27.1644 32.7882C27.5507 32.119 28.4064 31.8897 29.0756 32.2761C29.7449 32.6625 29.9741 33.5182 29.5878 34.1874ZM6.75397 34.1874C7.14033 34.8566 7.99602 35.0859 8.66522 34.6995C9.33442 34.3131 9.56372 33.4574 9.17742 32.7882C8.79102 32.119 7.93532 31.8897 7.26609 32.2761C6.59689 32.6625 6.3676 33.5182 6.75397 34.1874Z" fill="white"/>
<path fill-rule="evenodd" clip-rule="evenodd" d="M28.7133 10.5687L28.4163 9.54122C27.8334 7.52462 25.9721 6.05236 23.771 6.05236C23.4492 6.05236 23.1364 6.08356 22.8347 6.14264L21.7225 6.36046L21.148 5.38348C19.8499 3.17594 17.4539 1.7 14.7149 1.7C10.5969 1.7 7.25864 5.03831 7.25864 9.15632C7.25864 9.46272 7.27703 9.76412 7.31263 10.0596L7.49181 11.5471L6.01931 11.8235C3.56044 12.2851 1.7 14.4461 1.7 17.0383C1.7 19.9442 4.03609 22.3047 6.93226 22.3439L6.97478 22.3445H29.16L29.2227 22.3434C32.4037 22.2885 34.9659 19.6921 34.9659 16.4976C34.9659 13.4909 32.6952 11.0125 29.7761 10.6871L28.7133 10.5687ZM29.1608 22.4445L29.2244 22.4434C32.4599 22.3875 35.0659 19.7467 35.0659 16.4976C35.0659 13.4395 32.7563 10.9187 29.7872 10.5878L28.7908 10.4767L28.5124 9.51352C27.9175 7.45512 26.0178 5.95236 23.771 5.95236C23.4428 5.95236 23.1234 5.98419 22.8155 6.0445L21.7728 6.24871L21.2342 5.33279C19.9189 3.09593 17.4908 1.6 14.7149 1.6C10.5417 1.6 7.15864 4.98308 7.15864 9.15632C7.15864 9.46672 7.17727 9.77212 7.21335 10.0715L7.38141 11.4661L6.00086 11.7252C3.49552 12.1955 1.6 14.3971 1.6 17.0383C1.6 19.9989 3.98011 22.4039 6.93091 22.4439L6.97478 22.4445H29.1608ZM6.91056 23.9445C3.14047 23.8934 0.0999999 20.8206 0.0999999 17.0383C0.0999999 13.6622 2.52253 10.8519 5.72412 10.2509C5.68089 9.89212 5.65864 9.52682 5.65864 9.15632C5.65864 4.15465 9.71331 0.1 14.7149 0.1C18.044 0.1 20.9536 1.89627 22.5272 4.57247C22.9296 4.49366 23.3455 4.45236 23.771 4.45236C26.7036 4.45236 29.178 6.41417 29.9534 9.09702C33.6735 9.51172 36.5659 12.6668 36.5659 16.4976C36.5659 20.5665 33.3025 23.8732 29.2503 23.9432V23.9445H24.0297V27.0824H28.3708C28.7851 27.0824 29.1208 27.4182 29.1208 27.8324V30.6855C29.3623 30.7498 29.5993 30.8466 29.826 30.9775C31.2127 31.778 31.6878 33.5511 30.8872 34.9378C30.0866 36.3244 28.3135 36.7995 26.9269 35.9989C25.5402 35.1984 25.0651 33.4253 25.8657 32.0386C26.265 31.347 26.9063 30.8821 27.6208 30.6892V28.5824H23.2797C23.0808 28.5824 22.89 28.5034 22.7494 28.3628C22.6087 28.2221 22.5297 28.0313 22.5297 27.8324V23.9445H18.9213V30.687C20.1589 31.0175 21.0705 32.1464 21.0705 33.4882C21.0705 35.0894 19.7725 36.3874 18.1713 36.3874C16.5702 36.3874 15.2722 35.0894 15.2722 33.4882C15.2722 32.1464 16.1837 31.0176 17.4213 30.687V23.9445H13.8128V27.8135C13.8128 28.2277 13.477 28.5635 13.0628 28.5635H8.72171V30.6892C9.43621 30.8821 10.0775 31.347 10.4768 32.0386C11.2774 33.4253 10.8023 35.1984 9.41561 35.9989C8.02901 36.7995 6.2559 36.3244 5.45532 34.9378C4.65474 33.5511 5.12984 31.778 6.51648 30.9775C6.7432 30.8466 6.98025 30.7498 7.22169 30.6855V27.8135C7.22169 27.3993 7.55751 27.0635 7.97171 27.0635H12.3128V23.9445H6.91056ZM12.2128 24.0445H6.90921C3.08448 23.9926 0 20.8753 0 17.0383C0 13.6455 2.41162 10.8161 5.61418 10.1705C5.57748 9.83742 5.55864 9.49902 5.55864 9.15632C5.55864 4.09942 9.65801 0 14.7149 0C18.0557 0 20.9784 1.78918 22.5774 4.46112C22.9645 4.38968 23.3634 4.35236 23.771 4.35236C26.7259 4.35236 29.2226 6.31365 30.0306 9.00532C33.7688 9.45542 36.6659 12.6381 36.6659 16.4976C36.6659 20.5882 33.4114 23.9187 29.3503 24.0409V24.0445H24.1297V26.9824H28.3708C28.8403 26.9824 29.2208 27.363 29.2208 27.8324V30.6097C29.445 30.6756 29.6649 30.769 29.876 30.8908C31.3105 31.719 31.802 33.5533 30.9738 34.9878C30.1456 36.4222 28.3114 36.9137 26.8769 36.0855C25.4424 35.2573 24.9509 33.4231 25.7791 31.9886C26.1784 31.2971 26.8116 30.8247 27.5208 30.6137V28.6824H23.2797C23.0543 28.6824 22.8381 28.5929 22.6787 28.4335C22.5192 28.2741 22.4297 28.0579 22.4297 27.8324V24.0445H19.0213V30.6112C20.2637 30.9777 21.1705 32.1269 21.1705 33.4882C21.1705 35.1446 19.8277 36.4874 18.1713 36.4874C16.515 36.4874 15.1722 35.1446 15.1722 33.4882C15.1722 32.127 16.079 30.9778 17.3213 30.6113V24.0445H13.9128V27.8135C13.9128 28.2829 13.5323 28.6635 13.0628 28.6635H8.82171V30.6137C9.53091 30.8247 10.1642 31.2971 10.5634 31.9886C11.3916 33.4231 10.9001 35.2573 9.46561 36.0855C8.03121 36.9137 6.19691 36.4222 5.36871 34.9878C4.54052 33.5533 5.03201 31.719 6.46648 30.8908C6.67761 30.769 6.89752 30.6756 7.12169 30.6097V27.8135C7.12169 27.3441 7.50221 26.9635 7.97171 26.9635H12.2128V24.0445ZM8.53581 19.4235L11.6382 10.8962H13.1749L16.2714 19.4235H14.7008L13.9391 17.1729H10.8738L10.1063 19.4235H8.53581ZM10.8023 17.0729H14.0108L14.7726 19.3235H16.1287L13.1048 10.9962H11.7083L8.67861 19.3235H10.0347L10.8023 17.0729ZM16.952 19.4235V10.8962H20.1509C20.9903 10.8962 21.7076 11.1784 22.2155 11.6772C22.7236 12.1763 23.0151 12.8854 23.0151 13.7258V13.7373C23.0151 14.5749 22.7236 15.2867 22.2158 15.7892C21.7081 16.2917 20.9907 16.5785 20.1509 16.5785H18.4447V19.4235H16.952ZM18.3447 19.3235H17.052V10.9962H20.1509C21.7841 10.9962 22.9151 12.0927 22.9151 13.7258V13.7373C22.9151 15.3647 21.7841 16.4785 20.1509 16.4785H18.3447V19.3235ZM25.4389 19.4235H23.9462V10.8962H25.4389V19.4235ZM16.8722 33.4882C16.8722 34.2057 17.4538 34.7874 18.1713 34.7874C18.8889 34.7874 19.4705 34.2057 19.4705 33.4882C19.4705 32.7707 18.8889 32.1891 18.1713 32.1891C17.4538 32.1891 16.8722 32.7707 16.8722 33.4882ZM27.7269 34.6133C28.3483 34.972 29.1428 34.7592 29.5016 34.1378C29.8603 33.5164 29.6474 32.7218 29.0261 32.3631C28.4047 32.0043 27.6101 32.2172 27.2514 32.8386C26.8926 33.46 27.1055 34.2545 27.7269 34.6133ZM6.84096 34.1378C7.19971 34.7592 7.99431 34.972 8.61561 34.6133C9.23701 34.2545 9.44991 33.46 9.09121 32.8386C8.73241 32.2172 7.93781 32.0043 7.31648 32.3631C6.6951 32.7218 6.48221 33.5164 6.84096 34.1378ZM13.6588 16.0341H11.1485L12.395 12.3754H12.4181L13.6588 16.0341ZM12.4063 12.6522L11.2882 15.9341H13.5193L12.4063 12.6522ZM21.0674 12.5929C20.7889 12.3336 20.3732 12.1869 19.8278 12.1869H18.4447V15.2936H19.8278C20.3732 15.2936 20.7888 15.1469 21.0674 14.8869C21.3449 14.6279 21.4994 14.2443 21.4994 13.7431V13.7316C21.4994 13.2334 21.345 12.8513 21.0674 12.5929ZM18.1713 34.8874C17.3986 34.8874 16.7722 34.261 16.7722 33.4882C16.7722 32.7155 17.3986 32.0891 18.1713 32.0891C18.9441 32.0891 19.5705 32.7155 19.5705 33.4882C19.5705 34.261 18.9441 34.8874 18.1713 34.8874ZM27.6769 34.6999C28.3461 35.0863 29.2018 34.857 29.5882 34.1878C29.9745 33.5186 29.7453 32.6629 29.076 32.2765C28.4068 31.8901 27.5511 32.1194 27.1648 32.7886C26.7784 33.4578 27.0077 34.3135 27.6769 34.6999ZM8.66561 34.6999C7.99641 35.0863 7.14072 34.857 6.75436 34.1878C6.36799 33.5186 6.59728 32.6629 7.26648 32.2765C7.93571 31.8901 8.79141 32.1194 9.17781 32.7886C9.56411 33.4578 9.33481 34.3135 8.66561 34.6999ZM21.5994 13.7316C21.5994 12.6928 20.9531 12.0869 19.8278 12.0869H18.3447V15.3936H19.8278C20.9531 15.3936 21.5994 14.7876 21.5994 13.7431V13.7316ZM24.0462 19.3235V10.9962H25.3389V19.3235H24.0462Z" fill="white"/>
</svg>
