<svg width="35" height="35" viewBox="0 0 35 35" fill="none" xmlns="http://www.w3.org/2000/svg">
<g clip-path="url(#clip0_4235_5821)">
<path d="M34.2708 16.0417C33.8683 16.0417 33.5417 15.715 33.5417 15.3125C33.5417 7.67375 27.3263 1.45833 19.6875 1.45833C19.285 1.45833 18.9583 1.13167 18.9583 0.729167C18.9583 0.326667 19.285 0 19.6875 0C28.1313 0 35 6.86875 35 15.3125C35 15.715 34.6733 16.0417 34.2708 16.0417ZM29.1667 15.3125C29.1667 10.0858 24.9142 5.83333 19.6875 5.83333C19.285 5.83333 18.9583 6.16 18.9583 6.5625C18.9583 6.965 19.285 7.29167 19.6875 7.29167C24.1106 7.29167 27.7083 10.8894 27.7083 15.3125C27.7083 15.715 28.035 16.0417 28.4375 16.0417C28.84 16.0417 29.1667 15.715 29.1667 15.3125ZM32.4246 32.4785L33.8508 30.8379C34.5917 30.0971 35 29.1113 35 28.0642C35 27.0171 34.5917 26.0298 33.7794 25.2277L30.2123 22.4963C28.684 20.9679 26.1975 20.9665 24.6663 22.4919L22.4321 24.6706C17.0654 22.4846 12.6933 18.1081 10.3367 12.5621L12.5067 10.3381C14.0365 8.80833 14.0365 6.31896 12.5694 4.86063L9.7125 1.15208C8.22938 -0.331042 5.61021 -0.296042 4.2 1.11854L2.48792 2.61188C0.882292 4.20875 0 6.37729 0 8.715C0 20.0156 14.9844 35 26.285 35C28.6227 35 30.7898 34.1177 32.4246 32.4785ZM8.61729 2.10875L11.4742 5.81729C12.4352 6.77833 12.4352 8.34313 11.4683 9.31146L8.95708 11.8869C8.75583 12.094 8.69458 12.4002 8.8025 12.6685C11.324 18.9467 16.259 23.8802 22.3446 26.2019C22.61 26.304 22.9104 26.2412 23.1131 26.0444L25.6885 23.5331C25.6885 23.5331 25.6929 23.5288 25.6944 23.5258C26.6262 22.5925 28.1794 22.5327 29.2527 23.5885L32.8198 26.32C33.7808 27.281 33.7808 28.8444 32.7863 29.8433L31.3585 31.484C30.0344 32.811 28.2319 33.5417 26.285 33.5417C15.8433 33.5417 1.45833 19.1567 1.45833 8.715C1.45833 6.76812 2.18896 4.96563 3.48104 3.675L5.19458 2.18021C5.68458 1.69021 6.33063 1.45104 6.96646 1.45104C7.5775 1.45104 8.17833 1.67271 8.61875 2.11021L8.61729 2.10875Z" fill="#1C274C"/>
</g>
<defs>
<clipPath id="clip0_4235_5821">
<rect width="35" height="35" fill="white"/>
</clipPath>
</defs>
</svg>
