<svg width="30" height="30" viewBox="0 0 30 30" fill="none" xmlns="http://www.w3.org/2000/svg">
<g clip-path="url(#clip0_1743_4076)">
<path d="M24.375 4.99707H22.465C22.1538 2.18832 19.765 -0.00292969 16.875 -0.00292969H5.625C2.52375 -0.00292969 0 2.52082 0 5.62207V22.9396C0 23.7008 0.41625 24.3971 1.08875 24.7558C1.39375 24.9196 1.7275 24.9996 2.06 24.9996C2.45875 24.9996 2.8575 24.8833 3.2025 24.6533L7.6075 21.7171C8.11875 24.2958 10.3988 26.2458 13.125 26.2458H21.6863L26.7975 29.6533C27.1425 29.8846 27.54 29.9996 27.94 29.9996C28.2725 29.9996 28.6062 29.9196 28.9112 29.7558C29.5825 29.3971 30 28.7008 30 27.9396V10.6221C30 7.52082 27.4762 4.99707 24.375 4.99707ZM2.50875 23.6146C2.255 23.7833 1.94625 23.7996 1.6775 23.6546C1.41 23.5121 1.25 23.2446 1.25 22.9408V5.62207C1.25 3.20957 3.2125 1.24707 5.625 1.24707H16.875C19.2875 1.24707 21.25 3.20957 21.25 5.62207V15.6221C21.25 18.0346 19.2875 19.9971 16.875 19.9971H8.20375C8.01125 19.9971 7.8475 20.0646 7.7725 20.1058L2.50875 23.6146ZM28.75 27.9408C28.75 28.2446 28.59 28.5121 28.3225 28.6546C28.055 28.7983 27.7438 28.7821 27.4913 28.6146L22.2225 25.1021C22.12 25.0333 21.9987 24.9971 21.8762 24.9971H13.1263C10.9263 24.9971 9.1 23.3646 8.79625 21.2471H16.8763C19.9775 21.2471 22.5012 18.7233 22.5012 15.6221V6.24707H24.3762C26.7887 6.24707 28.7512 8.20957 28.7512 10.6221V27.9396L28.75 27.9408Z" fill="white"/>
</g>
<defs>
<clipPath id="clip0_1743_4076">
<rect width="30" height="30" fill="white"/>
</clipPath>
</defs>
</svg>
