<svg width="512" height="512" viewBox="0 0 512 512" fill="none" xmlns="http://www.w3.org/2000/svg">
<g clip-path="url(#clip0_1734_4233)">
<path d="M490.667 192C478.891 192 469.333 201.557 469.333 213.333V380.885C469.333 383.061 466.624 384.917 464.427 383.531L374.507 323.563C371.008 321.237 366.891 319.979 362.667 319.979H234.667C199.381 319.979 170.667 291.264 170.667 255.979V106.667C170.667 71.3813 199.381 42.6667 234.667 42.6667H298.667C310.443 42.6667 320 33.1093 320 21.3333C320 9.55733 310.443 0 298.667 0H234.667C183.168 0 140.075 36.7147 130.155 85.3333H106.667C47.8507 85.3333 0 133.184 0 192V466.219C0 483.157 9.28 498.645 24.192 506.624C30.976 510.272 38.4213 512 45.8453 512C54.528 512 63.5733 509.483 71.232 504.384L155.776 448H277.312C323.627 448 362.731 418.155 377.451 376.832L440.768 419.029C448.448 424.149 457.28 426.731 466.155 426.731C473.579 426.731 481.003 424.917 487.808 421.269C502.741 413.291 512 397.803 512 380.864V213.312C512 201.536 502.443 191.979 490.667 191.979V192ZM277.333 405.333H149.333C145.131 405.333 140.992 406.592 137.493 408.917L47.5733 468.885C44.9707 470.507 42.6027 468.864 42.6667 466.24V192C42.6667 156.715 71.3813 128 106.667 128H128V256C128 314.816 175.851 362.667 234.667 362.667H337.408C328.576 387.435 305.109 405.333 277.333 405.333ZM426.667 170.667C473.728 170.667 512 132.395 512 85.3333C512 38.272 473.728 0 426.667 0C379.605 0 341.333 38.272 341.333 85.3333C341.333 132.395 379.605 170.667 426.667 170.667ZM426.667 42.6667C450.197 42.6667 469.333 61.8027 469.333 85.3333C469.333 108.864 450.197 128 426.667 128C403.136 128 384 108.864 384 85.3333C384 61.8027 403.136 42.6667 426.667 42.6667Z" fill="white"/>
</g>
<defs>
<clipPath id="clip0_1734_4233">
<rect width="512" height="512" fill="white"/>
</clipPath>
</defs>
</svg>
