<svg width="15" height="16" viewBox="0 0 15 16" fill="none" xmlns="http://www.w3.org/2000/svg">
<g clip-path="url(#clip0_2992_2367)">
<path d="M0.191875 4.38813C-0.05625 4.14875 -0.064375 3.75313 0.175 3.50437C0.41375 3.255 0.809375 3.2475 1.05875 3.48687L1.87562 4.27187V3C1.875 1.62125 2.99625 0.5 4.375 0.5H5C5.34562 0.5 5.625 0.78 5.625 1.125C5.625 1.47 5.34562 1.75 5 1.75H4.375C3.68563 1.75 3.125 2.31062 3.125 3V4.26812L3.94187 3.48687C4.19125 3.2475 4.58687 3.255 4.82562 3.50437C5.065 3.75313 5.05687 4.14875 4.80875 4.38813L3.37063 5.77062C3.13313 6.00687 2.81875 6.12625 2.50313 6.12625C2.18438 6.12625 1.865 6.00563 1.62188 5.7625L0.191875 4.38813ZM0 13.625C0 14.6587 0.84125 15.5 1.875 15.5H6.25C7.28375 15.5 8.125 14.6587 8.125 13.625V11.125H0V13.625ZM13.125 0.5H8.75C7.71625 0.5 6.875 1.34125 6.875 2.375H15C15 1.34125 14.1587 0.5 13.125 0.5ZM6.875 6.125C6.875 7.15875 7.71625 8 8.75 8H13.125C14.1587 8 15 7.15875 15 6.125V3.625H6.875V6.125ZM6.2675 8.00187C6.26125 8.00187 6.25625 8 6.25 8H1.875C0.84125 8 0 8.84125 0 9.875H8.125C8.125 9.61438 8.07125 9.36687 7.97563 9.14125C7.28312 8.96313 6.6875 8.55562 6.2675 8.00187ZM13.3781 10.2375C12.8944 9.755 12.1062 9.75313 11.6294 10.2294L10.1912 11.6119C9.94312 11.8512 9.935 12.2469 10.1744 12.4956C10.4137 12.7438 10.8088 12.7525 11.0581 12.5125L11.875 11.7312V12.9994C11.875 13.6888 11.3144 14.2494 10.625 14.2494H9.375C9.02938 14.2494 8.75 14.5288 8.75 14.8744C8.75 15.22 9.02938 15.4994 9.375 15.4994H10.625C12.0037 15.4994 13.125 14.3781 13.125 12.9994V11.7275L13.9419 12.5125C14.0631 12.6294 14.2194 12.6869 14.375 12.6869C14.5394 12.6869 14.7025 12.6225 14.8256 12.495C15.065 12.2462 15.0569 11.8506 14.8088 11.6112L13.3787 10.2369L13.3781 10.2375Z" fill="#3AACE6"/>
</g>
<defs>
<clipPath id="clip0_2992_2367">
<rect width="15" height="15" fill="white" transform="translate(0 0.5)"/>
</clipPath>
</defs>
</svg>
