<svg width="512" height="512" viewBox="0 0 512 512" fill="none" xmlns="http://www.w3.org/2000/svg">
<g clip-path="url(#clip0_1734_4227)">
<path d="M117.333 149.333C158.507 149.333 192 115.84 192 74.6667C192 33.4933 158.507 0 117.333 0C76.16 0 42.6667 33.4933 42.6667 74.6667C42.6667 115.84 76.16 149.333 117.333 149.333ZM117.333 42.6667C134.976 42.6667 149.333 57.024 149.333 74.6667C149.333 92.3093 134.976 106.667 117.333 106.667C99.6907 106.667 85.3333 92.3093 85.3333 74.6667C85.3333 57.024 99.6907 42.6667 117.333 42.6667ZM106.667 213.333C71.3813 213.333 42.6667 242.048 42.6667 277.333C42.6667 289.131 33.1093 298.667 21.3333 298.667C9.55733 298.667 0 289.131 0 277.333C0 218.517 47.8507 170.667 106.667 170.667C118.443 170.667 128 180.203 128 192C128 203.797 118.443 213.333 106.667 213.333ZM256 362.667C256 374.464 246.443 384 234.667 384H213.333C178.048 384 149.333 412.715 149.333 448C149.333 459.797 139.776 469.333 128 469.333C116.224 469.333 106.667 459.797 106.667 448C106.667 389.184 154.517 341.333 213.333 341.333H234.667C246.443 341.333 256 350.869 256 362.667ZM330.667 149.333C371.84 149.333 405.333 115.84 405.333 74.6667C405.333 33.4933 371.84 0 330.667 0C289.493 0 256 33.4933 256 74.6667C256 115.84 289.493 149.333 330.667 149.333ZM330.667 42.6667C348.309 42.6667 362.667 57.024 362.667 74.6667C362.667 92.3093 348.309 106.667 330.667 106.667C313.024 106.667 298.667 92.3093 298.667 74.6667C298.667 57.024 313.024 42.6667 330.667 42.6667ZM341.333 170.667C379.285 170.667 414.699 191.104 433.728 223.979C439.616 234.197 436.139 247.232 425.941 253.12C422.592 255.083 418.901 256 415.275 256C407.915 256 400.747 252.181 396.779 245.355C385.365 225.6 364.117 213.333 341.333 213.333C329.557 213.333 320 203.797 320 192C320 180.203 329.557 170.667 341.333 170.667ZM512 405.333C512 417.131 502.443 426.667 490.667 426.667H426.667V490.667C426.667 502.464 417.109 512 405.333 512C393.557 512 384 502.464 384 490.667V426.667H320C308.224 426.667 298.667 417.131 298.667 405.333C298.667 393.536 308.224 384 320 384H384V320C384 308.203 393.557 298.667 405.333 298.667C417.109 298.667 426.667 308.203 426.667 320V384H490.667C502.443 384 512 393.536 512 405.333ZM224 170.667C182.827 170.667 149.333 204.16 149.333 245.333C149.333 286.507 182.827 320 224 320C265.173 320 298.667 286.507 298.667 245.333C298.667 204.16 265.173 170.667 224 170.667ZM224 277.333C206.357 277.333 192 262.976 192 245.333C192 227.691 206.357 213.333 224 213.333C241.643 213.333 256 227.691 256 245.333C256 262.976 241.643 277.333 224 277.333Z" fill="white"/>
</g>
<defs>
<clipPath id="clip0_1734_4227">
<rect width="512" height="512" fill="white"/>
</clipPath>
</defs>
</svg>
