<svg width="30" height="30" viewBox="0 0 30 30" fill="none" xmlns="http://www.w3.org/2000/svg">
<g clip-path="url(#clip0_1743_4130)">
<path d="M22.5 10C25.2575 10 27.5 7.7575 27.5 5C27.5 2.2425 25.2575 0 22.5 0C19.7425 0 17.5 2.2425 17.5 5C17.5 7.7575 19.7425 10 22.5 10ZM22.5 1.25C24.5675 1.25 26.25 2.9325 26.25 5C26.25 7.0675 24.5675 8.75 22.5 8.75C20.4325 8.75 18.75 7.0675 18.75 5C18.75 2.9325 20.4325 1.25 22.5 1.25ZM10 13.75C10 16.5075 12.2425 18.75 15 18.75C17.7575 18.75 20 16.5075 20 13.75C20 10.9925 17.7575 8.75 15 8.75C12.2425 8.75 10 10.9925 10 13.75ZM15 10C17.0675 10 18.75 11.6825 18.75 13.75C18.75 15.8175 17.0675 17.5 15 17.5C12.9325 17.5 11.25 15.8175 11.25 13.75C11.25 11.6825 12.9325 10 15 10ZM7.5 10C10.2575 10 12.5 7.7575 12.5 5C12.5 2.2425 10.2575 0 7.5 0C4.7425 0 2.5 2.2425 2.5 5C2.5 7.7575 4.7425 10 7.5 10ZM7.5 1.25C9.5675 1.25 11.25 2.9325 11.25 5C11.25 7.0675 9.5675 8.75 7.5 8.75C5.4325 8.75 3.75 7.0675 3.75 5C3.75 2.9325 5.4325 1.25 7.5 1.25ZM29.375 28.75H22.5C22.5 24.6137 19.1363 21.25 15 21.25C10.8637 21.25 7.5 24.6137 7.5 28.75H0.625C0.28 28.75 0 29.03 0 29.375C0 29.72 0.28 30 0.625 30H29.375C29.72 30 30 29.72 30 29.375C30 29.03 29.72 28.75 29.375 28.75ZM15 22.5C18.4462 22.5 21.25 25.3038 21.25 28.75H8.75C8.75 25.3038 11.5538 22.5 15 22.5ZM30 20V20.625C30 20.97 29.72 21.25 29.375 21.25C29.03 21.25 28.75 20.97 28.75 20.625V20C28.75 16.7437 26.3075 14.0675 23.0687 13.7762C22.725 13.7462 22.4713 13.4412 22.5025 13.0975C22.5338 12.7537 22.8363 12.5 23.1813 12.5312C27.0687 12.8812 30 16.0925 30 20ZM0 20.625V20C0 16.0925 2.93125 12.8813 6.81875 12.53C7.15375 12.5025 7.4675 12.7525 7.4975 13.0963C7.5275 13.44 7.275 13.745 6.93125 13.775C3.6925 14.0663 1.25 16.7425 1.25 19.9987V20.6238C1.25 20.9688 0.97 21.2488 0.625 21.2488C0.28 21.2488 0 20.97 0 20.625Z" fill="white"/>
</g>
<defs>
<clipPath id="clip0_1743_4130">
<rect width="30" height="30" fill="white"/>
</clipPath>
</defs>
</svg>
