<svg width="24" height="24" viewBox="0 0 24 24" fill="none" xmlns="http://www.w3.org/2000/svg">
<g clip-path="url(#clip0_1741_4045)">
<path d="M2 10.2248H1V2.49984C0.961 0.966841 2.498 -0.28816 3.993 0.0498404L10.324 1.32184C11.025 1.46284 11.611 1.87584 12 2.43084C12.39 1.87584 12.976 1.46284 13.676 1.32184L20.007 0.0498404C21.502 -0.28916 23.038 0.96784 23 2.50084V10.2258H22V2.49984C22.024 1.58084 21.098 0.82384 20.205 1.02984L13.874 2.30184C13.078 2.46184 12.5 3.16684 12.5 3.97884V10.2248H11.5V3.97884C11.5 3.16684 10.922 2.46184 10.126 2.30184L3.795 1.02984C2.898 0.82584 1.976 1.58084 2 2.49984V10.2248ZM24 11.9998C24 18.6168 18.617 23.9998 12 23.9998C5.383 23.9998 0 18.6168 0 11.9998H1C1 13.4118 1.277 14.7578 1.764 15.9998H6.669C6.265 14.7518 6 13.4108 6 11.9998H7C7 13.4068 7.292 14.7528 7.732 15.9998H16.269C16.708 14.7528 17.001 13.4068 17.001 11.9998H18.001C18.001 13.4108 17.736 14.7518 17.332 15.9998H22.237C22.724 14.7578 23.001 13.4118 23.001 11.9998H24ZM8.123 16.9998C9.352 19.8378 11.238 21.9898 12 22.7878C12.762 21.9898 14.649 19.8378 15.877 16.9998H8.122H8.123ZM10.76 22.9248C9.741 21.7808 8.096 19.6678 7.029 16.9998H2.214C3.859 20.2058 7.026 22.5038 10.76 22.9248ZM21.786 16.9998H16.972C15.905 19.6688 14.26 21.7808 13.241 22.9248C16.975 22.5038 20.142 20.2058 21.787 16.9998H21.786Z" fill="white"/>
</g>
<defs>
<clipPath id="clip0_1741_4045">
<rect width="24" height="24" fill="white"/>
</clipPath>
</defs>
</svg>
