<?xml version="1.0" encoding="utf-8"?>
<!-- Generator: Adobe Illustrator 24.0.2, SVG Export Plug-In . SVG Version: 6.00 Build 0)  -->
<svg version="1.1" id="Layer_1" xmlns="http://www.w3.org/2000/svg" xmlns:xlink="http://www.w3.org/1999/xlink" x="0px" y="0px"
	 viewBox="0 0 1920 1920" style="enable-background:new 0 0 1920 1920;" xml:space="preserve">
<style type="text/css">
	.st0{fill:url(#SVGID_1_);}
	.st1{fill:url(#SVGID_2_);}
	.st2{fill:url(#SVGID_3_);}
	.st3{fill:url(#SVGID_4_);}
	.st4{fill:url(#SVGID_5_);}
	.st5{fill:url(#SVGID_6_);}
	.st6{fill:url(#SVGID_7_);}
	.st7{fill:url(#SVGID_8_);}
	.st8{fill:url(#SVGID_9_);}
	.st9{fill:url(#SVGID_10_);}
	.st10{fill:url(#SVGID_11_);}
	.st11{fill:url(#SVGID_12_);}
	.st12{fill:url(#SVGID_13_);}
	.st13{fill:url(#SVGID_14_);}
	.st14{fill:url(#SVGID_15_);}
	.st15{fill:url(#SVGID_16_);}
	.st16{fill:url(#SVGID_17_);}
	.st17{fill:url(#SVGID_18_);}
	.st18{fill:url(#SVGID_19_);}
	.st19{fill:url(#SVGID_20_);}
	.st20{fill:url(#SVGID_21_);}
	.st21{fill:url(#SVGID_22_);}
	.st22{fill:url(#SVGID_23_);}
	.st23{fill:url(#SVGID_24_);}
</style>
<g>
	<g>
		<g>
			<linearGradient id="SVGID_1_" gradientUnits="userSpaceOnUse" x1="352.2661" y1="1148.9802" x2="352.2661" y2="1219.579">
				<stop  offset="0" style="stop-color:#969696"/>
				<stop  offset="1" style="stop-color:#545454"/>
			</linearGradient>
			<path class="st0" d="M384.87,1220.59h-50.96c-1.95,0-3.78-0.37-5.49-1.12c-1.74-0.75-3.25-1.76-4.55-3.04
				c-1.3-1.28-2.33-2.78-3.07-4.52c-0.75-1.71-1.12-3.54-1.12-5.49v-40.04h11.49v40.04c0,0.72,0.26,1.36,0.79,1.92
				c0.53,0.55,1.18,0.83,1.95,0.83h50.96V1220.59z"/>
			<linearGradient id="SVGID_2_" gradientUnits="userSpaceOnUse" x1="462.4698" y1="1148.9802" x2="462.4698" y2="1219.579">
				<stop  offset="0" style="stop-color:#969696"/>
				<stop  offset="1" style="stop-color:#545454"/>
			</linearGradient>
			<path class="st1" d="M496.37,1206.28c0,1.98-0.37,3.83-1.12,5.57c-0.77,1.73-1.81,3.25-3.11,4.55c-1.3,1.3-2.82,2.33-4.55,3.07
				c-1.76,0.75-3.63,1.12-5.6,1.12h-39.1c-1.98,0-3.83-0.37-5.56-1.12c-1.74-0.75-3.25-1.77-4.55-3.07c-1.3-1.3-2.33-2.82-3.07-4.55
				c-0.75-1.74-1.12-3.59-1.12-5.57v-25.52c0-1.98,0.37-3.84,1.12-5.6c0.75-1.73,1.77-3.25,3.07-4.55c1.3-1.3,2.82-2.34,4.55-3.11
				c1.73-0.75,3.59-1.12,5.56-1.12h39.1c1.98,0,3.84,0.37,5.6,1.12c1.73,0.77,3.25,1.81,4.55,3.11c1.3,1.3,2.34,2.82,3.11,4.55
				c0.75,1.76,1.12,3.63,1.12,5.6V1206.28z M484.88,1180.76c0-0.79-0.28-1.48-0.83-2.06c-0.58-0.55-1.27-0.83-2.06-0.83h-39.1
				c-0.77,0-1.43,0.28-1.99,0.83c-0.56,0.58-0.83,1.27-0.83,2.06v25.52c0,0.79,0.28,1.47,0.83,2.02c0.55,0.58,1.22,0.87,1.99,0.87
				h39.1c0.79,0,1.48-0.29,2.06-0.87c0.55-0.55,0.83-1.23,0.83-2.02V1180.76z"/>
			<linearGradient id="SVGID_3_" gradientUnits="userSpaceOnUse" x1="572.6735" y1="1148.9802" x2="572.6735" y2="1219.579">
				<stop  offset="0" style="stop-color:#969696"/>
				<stop  offset="1" style="stop-color:#545454"/>
			</linearGradient>
			<path class="st2" d="M605.27,1220.59h-50.96c-1.95,0-3.78-0.37-5.49-1.12c-1.74-0.75-3.25-1.76-4.55-3.04
				c-1.3-1.28-2.33-2.78-3.07-4.52c-0.75-1.71-1.12-3.54-1.12-5.49v-25.8c0-1.95,0.37-3.8,1.12-5.53c0.75-1.71,1.77-3.22,3.07-4.52
				c1.3-1.3,2.82-2.32,4.55-3.07c1.71-0.75,3.54-1.12,5.49-1.12h50.96v11.49h-50.96c-0.77,0-1.42,0.27-1.95,0.79
				c-0.53,0.53-0.79,1.18-0.79,1.95v25.8c0,0.72,0.26,1.36,0.79,1.92c0.53,0.55,1.18,0.83,1.95,0.83h39.47v-21.39h11.49V1220.59z"/>
			<linearGradient id="SVGID_4_" gradientUnits="userSpaceOnUse" x1="654.7237" y1="1148.9802" x2="654.7237" y2="1219.579">
				<stop  offset="0" style="stop-color:#969696"/>
				<stop  offset="1" style="stop-color:#545454"/>
			</linearGradient>
			<path class="st3" d="M660.47,1220.59h-11.49v-54.21h11.49V1220.59z"/>
			<linearGradient id="SVGID_5_" gradientUnits="userSpaceOnUse" x1="736.7739" y1="1148.9802" x2="736.7739" y2="1219.579">
				<stop  offset="0" style="stop-color:#969696"/>
				<stop  offset="1" style="stop-color:#545454"/>
			</linearGradient>
			<path class="st4" d="M769.37,1220.59h-50.96c-1.95,0-3.78-0.37-5.49-1.12c-1.74-0.75-3.25-1.76-4.55-3.04
				c-1.3-1.28-2.33-2.78-3.07-4.52c-0.75-1.71-1.12-3.54-1.12-5.49v-25.8c0-1.95,0.37-3.8,1.12-5.53c0.75-1.71,1.77-3.22,3.07-4.52
				c1.3-1.3,2.82-2.32,4.55-3.07c1.71-0.75,3.54-1.12,5.49-1.12h50.96v11.49h-50.96c-0.77,0-1.42,0.27-1.95,0.79
				c-0.53,0.53-0.79,1.18-0.79,1.95v25.8c0,0.72,0.26,1.36,0.79,1.92c0.53,0.55,1.18,0.83,1.95,0.83h50.96V1220.59z"/>
			<linearGradient id="SVGID_6_" gradientUnits="userSpaceOnUse" x1="846.9783" y1="1148.9802" x2="846.9783" y2="1219.579">
				<stop  offset="0" style="stop-color:#969696"/>
				<stop  offset="1" style="stop-color:#545454"/>
			</linearGradient>
			<path class="st5" d="M880.88,1206.28c0,1.98-0.37,3.83-1.12,5.57c-0.77,1.73-1.81,3.25-3.11,4.55c-1.3,1.3-2.82,2.33-4.55,3.07
				c-1.76,0.75-3.63,1.12-5.6,1.12h-39.1c-1.98,0-3.83-0.37-5.56-1.12c-1.73-0.75-3.25-1.77-4.55-3.07c-1.3-1.3-2.33-2.82-3.07-4.55
				c-0.75-1.74-1.12-3.59-1.12-5.57v-25.52c0-1.98,0.37-3.84,1.12-5.6c0.75-1.73,1.77-3.25,3.07-4.55c1.3-1.3,2.82-2.34,4.55-3.11
				c1.73-0.75,3.59-1.12,5.56-1.12h39.1c1.98,0,3.84,0.37,5.6,1.12c1.74,0.77,3.25,1.81,4.55,3.11c1.3,1.3,2.34,2.82,3.11,4.55
				c0.75,1.76,1.12,3.63,1.12,5.6V1206.28z M869.39,1180.76c0-0.79-0.28-1.48-0.83-2.06c-0.58-0.55-1.26-0.83-2.06-0.83h-39.1
				c-0.77,0-1.43,0.28-1.99,0.83c-0.56,0.58-0.83,1.27-0.83,2.06v25.52c0,0.79,0.28,1.47,0.83,2.02c0.55,0.58,1.22,0.87,1.99,0.87
				h39.1c0.8,0,1.48-0.29,2.06-0.87c0.55-0.55,0.83-1.23,0.83-2.02V1180.76z"/>
			<linearGradient id="SVGID_7_" gradientUnits="userSpaceOnUse" x1="958.4828" y1="1148.9802" x2="958.4828" y2="1219.579">
				<stop  offset="0" style="stop-color:#969696"/>
				<stop  offset="1" style="stop-color:#545454"/>
			</linearGradient>
			<path class="st6" d="M992.38,1220.59h-11.49v-39.54c0-0.43-0.09-0.84-0.25-1.23c-0.17-0.38-0.4-0.72-0.69-1.01
				c-0.29-0.29-0.63-0.52-1.01-0.69c-0.39-0.17-0.8-0.25-1.23-0.25h-53.13v-11.49h53.13c2,0,3.89,0.39,5.67,1.16
				c1.78,0.77,3.35,1.82,4.7,3.14c1.33,1.35,2.37,2.92,3.14,4.7c0.77,1.78,1.16,3.67,1.16,5.67V1220.59z M936.08,1220.59h-11.49
				v-32.82h11.49V1220.59z"/>
			<linearGradient id="SVGID_8_" gradientUnits="userSpaceOnUse" x1="1069.9873" y1="1148.9802" x2="1069.9873" y2="1219.579">
				<stop  offset="0" style="stop-color:#969696"/>
				<stop  offset="1" style="stop-color:#545454"/>
			</linearGradient>
			<path class="st7" d="M1103.89,1220.59h-11.49v-39.54c0-0.43-0.09-0.84-0.25-1.23c-0.17-0.38-0.4-0.72-0.69-1.01
				c-0.29-0.29-0.63-0.52-1.01-0.69c-0.39-0.17-0.8-0.25-1.23-0.25h-53.13v-11.49h53.13c2,0,3.89,0.39,5.67,1.16
				c1.78,0.77,3.35,1.82,4.7,3.14c1.33,1.35,2.37,2.92,3.14,4.7c0.77,1.78,1.16,3.67,1.16,5.67V1220.59z M1047.58,1220.59h-11.49
				v-32.82h11.49V1220.59z"/>
			<linearGradient id="SVGID_9_" gradientUnits="userSpaceOnUse" x1="1153.3383" y1="1148.9802" x2="1153.3383" y2="1219.579">
				<stop  offset="0" style="stop-color:#969696"/>
				<stop  offset="1" style="stop-color:#545454"/>
			</linearGradient>
			<path class="st8" d="M1159.08,1220.59h-11.49v-11.42h11.49V1220.59z"/>
			<linearGradient id="SVGID_10_" gradientUnits="userSpaceOnUse" x1="1236.6545" y1="1148.9802" x2="1236.6545" y2="1219.579">
				<stop  offset="0" style="stop-color:#969696"/>
				<stop  offset="1" style="stop-color:#545454"/>
			</linearGradient>
			<path class="st9" d="M1270.52,1177.87h-67.73v-11.49h67.73V1177.87z M1242.4,1220.59h-11.49v-32.82h11.49V1220.59z"/>
			<linearGradient id="SVGID_11_" gradientUnits="userSpaceOnUse" x1="1347.0747" y1="1148.9802" x2="1347.0747" y2="1219.579">
				<stop  offset="0" style="stop-color:#969696"/>
				<stop  offset="1" style="stop-color:#545454"/>
			</linearGradient>
			<path class="st10" d="M1379.93,1177.87h-65.7v-11.49h65.7V1177.87z M1379.93,1220.59h-65.7v-32.82h65.7v11.49h-54.21v9.9h54.21
				V1220.59z"/>
			<linearGradient id="SVGID_12_" gradientUnits="userSpaceOnUse" x1="1456.2302" y1="1148.9802" x2="1456.2302" y2="1219.579">
				<stop  offset="0" style="stop-color:#969696"/>
				<stop  offset="1" style="stop-color:#545454"/>
			</linearGradient>
			<path class="st11" d="M1488.83,1220.59h-50.96c-1.95,0-3.78-0.37-5.49-1.12c-1.73-0.75-3.25-1.76-4.55-3.04
				c-1.3-1.28-2.33-2.78-3.07-4.52c-0.75-1.71-1.12-3.54-1.12-5.49v-25.8c0-1.95,0.37-3.8,1.12-5.53c0.75-1.71,1.77-3.22,3.07-4.52
				c1.3-1.3,2.82-2.32,4.55-3.07c1.71-0.75,3.54-1.12,5.49-1.12h50.96v11.49h-50.96c-0.77,0-1.42,0.27-1.95,0.79
				c-0.53,0.53-0.79,1.18-0.79,1.95v25.8c0,0.72,0.26,1.36,0.79,1.92c0.53,0.55,1.18,0.83,1.95,0.83h50.96V1220.59z"/>
			<linearGradient id="SVGID_13_" gradientUnits="userSpaceOnUse" x1="1566.434" y1="1148.9802" x2="1566.434" y2="1219.579">
				<stop  offset="0" style="stop-color:#969696"/>
				<stop  offset="1" style="stop-color:#545454"/>
			</linearGradient>
			<path class="st12" d="M1600.33,1220.59h-11.49v-21.32h-44.82v21.32h-11.49v-32.82h56.31v-21.39h11.49V1220.59z M1544.03,1177.87
				h-11.49v-11.49h11.49V1177.87z"/>
		</g>
		<g>
			<linearGradient id="SVGID_14_" gradientUnits="userSpaceOnUse" x1="395.0001" y1="958.7" x2="395.0001" y2="1084.5251">
				<stop  offset="0" style="stop-color:#10ADF3"/>
				<stop  offset="1" style="stop-color:#013A72"/>
			</linearGradient>
			<path class="st13" d="M470.33,1119.36H352.57c-4.51,0-8.74-0.86-12.69-2.59c-4.01-1.73-7.52-4.06-10.52-7.02
				c-3.01-2.95-5.37-6.43-7.1-10.44c-1.73-3.95-2.59-8.19-2.59-12.69v-92.54h26.56v92.54c0,1.67,0.61,3.15,1.84,4.43
				c1.22,1.28,2.73,1.92,4.51,1.92h117.76V1119.36z"/>
			<linearGradient id="SVGID_15_" gradientUnits="userSpaceOnUse" x1="573.7289" y1="958.7" x2="573.7289" y2="1084.5251">
				<stop  offset="0" style="stop-color:#10ADF3"/>
				<stop  offset="1" style="stop-color:#013A72"/>
			</linearGradient>
			<path class="st14" d="M652.07,1086.28c0,4.57-0.86,8.85-2.59,12.86c-1.78,4.01-4.18,7.52-7.18,10.52s-6.51,5.37-10.52,7.1
				c-4.07,1.73-8.38,2.59-12.95,2.59h-90.37c-4.57,0-8.85-0.86-12.86-2.59c-4.01-1.73-7.52-4.09-10.52-7.1s-5.37-6.51-7.1-10.52
				c-1.73-4.01-2.59-8.3-2.59-12.86v-58.96c0-4.56,0.86-8.88,2.59-12.95c1.73-4.01,4.09-7.52,7.1-10.52
				c3.01-3.01,6.51-5.4,10.52-7.18c4.01-1.72,8.3-2.59,12.86-2.59h90.37c4.57,0,8.88,0.86,12.95,2.59
				c4.01,1.78,7.52,4.18,10.52,7.18c3.01,3.01,5.4,6.51,7.18,10.52c1.73,4.06,2.59,8.38,2.59,12.95V1086.28z M625.51,1027.32
				c0-1.84-0.64-3.42-1.92-4.76c-1.34-1.28-2.92-1.92-4.76-1.92h-90.37c-1.78,0-3.31,0.64-4.59,1.92c-1.28,1.34-1.92,2.92-1.92,4.76
				v58.96c0,1.84,0.64,3.4,1.92,4.68c1.28,1.34,2.81,2,4.59,2h90.37c1.84,0,3.42-0.67,4.76-2c1.28-1.28,1.92-2.84,1.92-4.68V1027.32
				z"/>
			<linearGradient id="SVGID_16_" gradientUnits="userSpaceOnUse" x1="752.4576" y1="958.7" x2="752.4576" y2="1084.5251">
				<stop  offset="0" style="stop-color:#10ADF3"/>
				<stop  offset="1" style="stop-color:#013A72"/>
			</linearGradient>
			<path class="st15" d="M827.79,1119.36H710.03c-4.51,0-8.74-0.86-12.7-2.59c-4.01-1.73-7.52-4.06-10.52-7.02
				c-3.01-2.95-5.37-6.43-7.1-10.44c-1.73-3.95-2.59-8.19-2.59-12.69v-59.63c0-4.51,0.86-8.77,2.59-12.78
				c1.73-3.95,4.09-7.43,7.1-10.44s6.51-5.37,10.52-7.1c3.95-1.72,8.19-2.59,12.7-2.59h117.76v26.56H710.03
				c-1.78,0-3.29,0.61-4.51,1.84c-1.23,1.23-1.84,2.73-1.84,4.51v59.63c0,1.67,0.61,3.15,1.84,4.43c1.22,1.28,2.73,1.92,4.51,1.92
				h91.2v-49.44h26.56V1119.36z"/>
			<linearGradient id="SVGID_17_" gradientUnits="userSpaceOnUse" x1="979.7944" y1="958.7" x2="979.7944" y2="1084.5251">
				<stop  offset="0" style="stop-color:#10ADF3"/>
				<stop  offset="1" style="stop-color:#013A72"/>
			</linearGradient>
			<path class="st16" d="M1055.13,1119.36H937.37c-4.51,0-8.74-0.86-12.7-2.59c-4.01-1.73-7.52-4.06-10.52-7.02
				c-3.01-2.95-5.37-6.43-7.1-10.44c-1.73-3.95-2.59-8.19-2.59-12.69v-59.63c0-4.51,0.86-8.77,2.59-12.78
				c1.73-3.95,4.09-7.43,7.1-10.44c3.01-3.01,6.51-5.37,10.52-7.1c3.95-1.72,8.19-2.59,12.7-2.59h117.76v26.56H937.37
				c-1.78,0-3.29,0.61-4.51,1.84c-1.23,1.23-1.84,2.73-1.84,4.51v59.63c0,1.67,0.61,3.15,1.84,4.43c1.22,1.28,2.73,1.92,4.51,1.92
				h117.76V1119.36z"/>
			<linearGradient id="SVGID_18_" gradientUnits="userSpaceOnUse" x1="1158.5225" y1="958.7" x2="1158.5225" y2="1084.5251">
				<stop  offset="0" style="stop-color:#10ADF3"/>
				<stop  offset="1" style="stop-color:#013A72"/>
			</linearGradient>
			<path class="st17" d="M1236.86,1086.28c0,4.57-0.86,8.85-2.59,12.86c-1.78,4.01-4.18,7.52-7.18,10.52
				c-3.01,3.01-6.51,5.37-10.52,7.1c-4.07,1.73-8.38,2.59-12.95,2.59h-90.37c-4.57,0-8.85-0.86-12.86-2.59
				c-4.01-1.73-7.52-4.09-10.52-7.1c-3.01-3.01-5.37-6.51-7.1-10.52c-1.73-4.01-2.59-8.3-2.59-12.86v-58.96
				c0-4.56,0.86-8.88,2.59-12.95c1.73-4.01,4.09-7.52,7.1-10.52c3.01-3.01,6.51-5.4,10.52-7.18c4.01-1.72,8.3-2.59,12.86-2.59h90.37
				c4.56,0,8.88,0.86,12.95,2.59c4.01,1.78,7.52,4.18,10.52,7.18c3.01,3.01,5.4,6.51,7.18,10.52c1.72,4.06,2.59,8.38,2.59,12.95
				V1086.28z M1210.3,1027.32c0-1.84-0.64-3.42-1.92-4.76c-1.34-1.28-2.92-1.92-4.76-1.92h-90.37c-1.78,0-3.31,0.64-4.59,1.92
				c-1.28,1.34-1.92,2.92-1.92,4.76v58.96c0,1.84,0.64,3.4,1.92,4.68c1.28,1.34,2.81,2,4.59,2h90.37c1.84,0,3.42-0.67,4.76-2
				c1.28-1.28,1.92-2.84,1.92-4.68V1027.32z"/>
			<linearGradient id="SVGID_19_" gradientUnits="userSpaceOnUse" x1="1340.2573" y1="958.7" x2="1340.2573" y2="1084.5251">
				<stop  offset="0" style="stop-color:#10ADF3"/>
				<stop  offset="1" style="stop-color:#013A72"/>
			</linearGradient>
			<path class="st18" d="M1418.6,1119.36h-26.56v-91.37c0-1-0.19-1.95-0.58-2.84c-0.39-0.89-0.92-1.67-1.59-2.34
				c-0.67-0.67-1.45-1.2-2.34-1.59c-0.89-0.39-1.84-0.58-2.84-0.58h-122.77v-26.56h122.77c4.62,0,8.99,0.89,13.11,2.67
				c4.12,1.78,7.74,4.21,10.86,7.27c3.06,3.12,5.48,6.74,7.27,10.86c1.78,4.12,2.67,8.49,2.67,13.11V1119.36z M1288.48,1119.36
				h-26.56v-75.83h26.56V1119.36z"/>
			<linearGradient id="SVGID_20_" gradientUnits="userSpaceOnUse" x1="1521.9935" y1="958.7" x2="1521.9935" y2="1084.5251">
				<stop  offset="0" style="stop-color:#10ADF3"/>
				<stop  offset="1" style="stop-color:#013A72"/>
			</linearGradient>
			<path class="st19" d="M1600.33,1119.36h-26.56v-91.37c0-1-0.19-1.95-0.58-2.84c-0.39-0.89-0.92-1.67-1.59-2.34
				c-0.67-0.67-1.45-1.2-2.34-1.59c-0.89-0.39-1.84-0.58-2.84-0.58h-122.77v-26.56h122.77c4.62,0,8.99,0.89,13.11,2.67
				c4.12,1.78,7.74,4.21,10.86,7.27c3.06,3.12,5.48,6.74,7.27,10.86c1.78,4.12,2.67,8.49,2.67,13.11V1119.36z M1470.21,1119.36
				h-26.56v-75.83h26.56V1119.36z"/>
		</g>
	</g>
	<g>
		<linearGradient id="SVGID_21_" gradientUnits="userSpaceOnUse" x1="870.384" y1="973.166" x2="866.1444" y2="1085.9391">
			<stop  offset="0" style="stop-color:#10ADF3"/>
			<stop  offset="1" style="stop-color:#013A72"/>
		</linearGradient>
		<path class="st20" d="M886.4,993.51c-20.29,55.86-21.36,106.48-20.93,129.53c-6.75-19.2-21.77-69.21-9.62-129.53H886.4z"/>
		<linearGradient id="SVGID_22_" gradientUnits="userSpaceOnUse" x1="1023.5614" y1="783.6395" x2="755.346" y2="783.6395">
			<stop  offset="0" style="stop-color:#10ADF3"/>
			<stop  offset="1" style="stop-color:#013A72"/>
		</linearGradient>
		<path class="st21" d="M933.66,770.85c-18.47-7.16-54.99-18.4-100.97-13.11c-60.36,6.94-100.44,38.17-115.39,51.14
			c12.32-6.3,27.7-12.96,45.89-18.36c16.59-4.92,31.73-7.65,44.58-9.18c5.28,7.07,18.17,22.08,39.34,27.54
			C877.41,816.68,912.11,801.7,933.66,770.85z"/>
		<linearGradient id="SVGID_23_" gradientUnits="userSpaceOnUse" x1="1023.5614" y1="784.3013" x2="755.346" y2="784.3013">
			<stop  offset="0" style="stop-color:#10ADF3"/>
			<stop  offset="1" style="stop-color:#013A72"/>
		</linearGradient>
		<path class="st22" d="M1051.97,748.74c-0.1-0.06-0.2-0.12-0.29-0.18c-37.24-23.13-77.62-17.21-91.79-14.42
			c-8.73-6.3-17.52-11.48-26.23-15.74c-107.24-52.45-236.95,18.02-275.37,40.65c64.74-27.54,175.48-61.11,277.99-15.74
			c6.97,3.08,13.97,6.57,20.98,10.49c24.95-2.45,74.91-3.84,97.03,26.23c0.92,1.25,1.8,2.56,2.62,3.93
			c2.73,9.04,5.57,22.14,5.25,38.03c-0.43,20.97-6.17,37.4-10.49,47.21c6.3-6.44,20.58-22.78,26.23-48.52
			c1.56-7.09,2.21-13.8,2.3-19.95C1080.49,779.7,1069.8,759.89,1051.97,748.74z"/>
	</g>
	<linearGradient id="SVGID_24_" gradientUnits="userSpaceOnUse" x1="980.5473" y1="818.4518" x2="883.8846" y2="939.9868">
		<stop  offset="0" style="stop-color:#969696"/>
		<stop  offset="1" style="stop-color:#545454"/>
	</linearGradient>
	<path class="st23" d="M893.93,973.81c5.4-18.61,20.08-59.76,58.86-96.1c35.17-32.95,72.64-45.53,91.29-50.45
		c-19.69-2.87-58.94-5.91-104.51,9.61c-46.67,15.89-76.33,43.2-90.09,57.66c7.51-4.7,18.85-10.63,33.63-14.41
		c14.03-3.59,26.23-3.99,34.84-3.6c-9.38,9.44-19.99,21.74-30.03,37.24c-14.57,22.49-22.81,43.83-27.63,60.06
		C871.51,973.81,882.72,973.81,893.93,973.81z"/>
</g>
</svg>
