<svg width="35" height="35" viewBox="0 0 35 35" fill="none" xmlns="http://www.w3.org/2000/svg">
<g clip-path="url(#clip0_4235_5813)">
<path d="M20.4167 28.4375C20.4167 28.84 20.09 29.1667 19.6875 29.1667H17.5V34.2708C17.5 34.6733 17.1733 35 16.7708 35H9.47917C9.07667 35 8.75 34.6733 8.75 34.2708C8.75 33.8683 9.07667 33.5417 9.47917 33.5417H16.0417V29.1667H6.5625C2.94438 29.1667 0 26.2223 0 22.6042V9.47918C0 5.86105 2.94438 2.91668 6.5625 2.91668H16.7708C17.1733 2.91668 17.5 3.24335 17.5 3.64585C17.5 4.04835 17.1733 4.37501 16.7708 4.37501H6.5625C3.74792 4.37501 1.45833 6.6646 1.45833 9.47918V22.6042C1.45833 25.4188 3.74792 27.7083 6.5625 27.7083H19.6875C20.09 27.7083 20.4167 28.035 20.4167 28.4375ZM10.2083 16.0417C8.19875 16.0417 6.5625 14.4054 6.5625 12.3958C6.5625 10.3863 8.19875 8.75001 10.2083 8.75001C12.2179 8.75001 13.8542 10.3863 13.8542 12.3958C13.8542 14.4054 12.2179 16.0417 10.2083 16.0417ZM10.2083 14.5833C11.4144 14.5833 12.3958 13.6019 12.3958 12.3958C12.3958 11.1898 11.4144 10.2083 10.2083 10.2083C9.00229 10.2083 8.02083 11.1898 8.02083 12.3958C8.02083 13.6019 9.00229 14.5833 10.2083 14.5833ZM4.43479 22.5006C4.37792 22.8988 4.655 23.2692 5.05313 23.3261C5.45854 23.3873 5.82167 23.1058 5.87854 22.7077C6.18333 20.5698 8.04563 18.9583 10.2083 18.9583C12.371 18.9583 14.2333 20.5698 14.5381 22.7077C14.5935 23.1088 14.9727 23.3844 15.3635 23.3261C15.7617 23.2692 16.0387 22.9002 15.9819 22.5006C15.575 19.6496 13.0929 17.5 10.2083 17.5C7.32375 17.5 4.84167 19.6496 4.43479 22.5006ZM35 5.10564V8.0223C35 10.8369 32.7104 13.1265 29.8958 13.1265H26.4571L23.1 15.7033C22.591 16.0942 21.9188 16.1583 21.3485 15.8754C20.7754 15.594 20.4196 15.0208 20.4196 14.3821L20.4167 5.10855C20.4167 2.29397 22.7048 0.00292969 25.5194 0.00292969H29.8944C31.2579 0.00292969 32.5383 0.533763 33.5038 1.49772C34.4692 2.46168 34.9985 3.74355 34.9985 5.1071L35 5.10564ZM33.5417 5.10564C33.5417 4.13147 33.1625 3.21564 32.4742 2.5273C31.7858 1.83897 30.87 1.4598 29.8958 1.4598H25.5194C23.5098 1.46126 21.875 3.09751 21.875 5.1071L21.8779 14.3806C21.8779 14.6461 22.0865 14.6242 22.2119 14.544L25.7658 11.8169C25.8942 11.7192 26.0488 11.6652 26.2106 11.6652H29.8973C31.9083 11.6652 33.5431 10.029 33.5431 8.01939V5.10272L33.5417 5.10564ZM27.7083 27.7083C23.9852 27.7083 20.8702 30.4952 20.4604 34.1906C20.4167 34.5902 20.7054 34.9519 21.105 34.9956C21.4988 35.0365 21.8648 34.7506 21.91 34.3511C22.2381 31.395 24.7304 29.1667 27.7083 29.1667C30.6863 29.1667 33.1785 31.395 33.5067 34.3511C33.549 34.7536 33.9194 35.0408 34.3117 34.9956C34.7113 34.9519 35.0015 34.5902 34.9562 34.1906C34.5479 30.4952 31.4315 27.7083 27.7083 27.7083ZM27.7083 25.5208C25.2963 25.5208 23.3333 23.5579 23.3333 21.1458C23.3333 18.7338 25.2963 16.7708 27.7083 16.7708C30.1204 16.7708 32.0833 18.7338 32.0833 21.1458C32.0833 23.5579 30.1204 25.5208 27.7083 25.5208ZM27.7083 24.0625C29.3169 24.0625 30.625 22.7544 30.625 21.1458C30.625 19.5373 29.3169 18.2292 27.7083 18.2292C26.0998 18.2292 24.7917 19.5373 24.7917 21.1458C24.7917 22.7544 26.0998 24.0625 27.7083 24.0625Z" fill="white"/>
</g>
<defs>
<clipPath id="clip0_4235_5813">
<rect width="35" height="35" fill="white"/>
</clipPath>
</defs>
</svg>
