<svg width="30" height="30" viewBox="0 0 30 30" fill="none" xmlns="http://www.w3.org/2000/svg">
<g clip-path="url(#clip0_1743_4144)">
<path d="M14.9996 15.0003C14.9996 11.0678 16.8071 7.59403 20.5259 4.38278C21.1134 3.87653 21.3746 3.11528 21.2284 2.34778C21.0809 1.58028 20.5559 0.971532 19.8234 0.719032C17.7746 0.0127824 15.0096 -0.190968 12.6034 0.190282C6.03336 1.23403 0.765859 6.79028 0.0821086 13.404C-0.739141 21.344 4.76211 28.5503 12.6034 29.8103C13.4234 29.9415 14.2546 29.9978 15.1021 30.0015C16.8046 30.0015 18.4784 29.7465 19.8234 29.2815C20.5546 29.029 21.0796 28.4203 21.2284 27.6528C21.3759 26.8853 21.1134 26.124 20.5259 25.6178C16.8071 22.4065 14.9996 18.934 14.9996 15.0003ZM19.4159 28.099C18.1971 28.519 16.6696 28.7503 15.0996 28.7503C14.3246 28.744 13.5559 28.6965 12.8009 28.5753C5.61336 27.4215 0.572109 20.8128 1.32586 13.5328C1.95211 7.47278 6.77836 2.38028 12.7996 1.42528C13.5459 1.30653 14.3284 1.24903 15.1084 1.24903C16.6459 1.24903 18.1784 1.47278 19.4159 1.90028C19.7196 2.00528 19.9384 2.26028 19.9996 2.58278C20.0621 2.90653 19.9534 3.22528 19.7096 3.43653C15.6996 6.89903 13.7496 10.6815 13.7496 14.999C13.7496 19.3165 15.6996 23.099 19.7096 26.5615C19.9534 26.7728 20.0621 27.0915 19.9996 27.4153C19.9384 27.7378 19.7196 27.994 19.4159 28.099Z" fill="black"/>
<path d="M21.25 20C21.9404 20 22.5 19.4404 22.5 18.75C22.5 18.0596 21.9404 17.5 21.25 17.5C20.5596 17.5 20 18.0596 20 18.75C20 19.4404 20.5596 20 21.25 20Z" fill="black"/>
<path d="M28.75 25C29.4404 25 30 24.4404 30 23.75C30 23.0596 29.4404 22.5 28.75 22.5C28.0596 22.5 27.5 23.0596 27.5 23.75C27.5 24.4404 28.0596 25 28.75 25Z" fill="black"/>
<path d="M29.5726 11.2174C29.8276 11.1324 30.0001 10.8937 30.0001 10.6249C30.0001 10.3562 29.8276 10.1174 29.5726 10.0324L27.9939 9.50617L27.4676 7.92742C27.2976 7.41742 26.4526 7.41742 26.2826 7.92742L25.7589 9.49867L24.1889 9.98992C23.9326 10.0699 23.7551 10.3049 23.7501 10.5749C23.7451 10.8449 23.9126 11.0862 24.1664 11.1749L25.7539 11.7362L26.2826 13.3224C26.3676 13.5774 26.6064 13.7499 26.8751 13.7499C27.1439 13.7499 27.3826 13.5774 27.4676 13.3224L27.9939 11.7437L29.5726 11.2174Z" fill="black"/>
</g>
<defs>
<clipPath id="clip0_1743_4144">
<rect width="30" height="30" fill="white"/>
</clipPath>
</defs>
</svg>
