<svg width="35" height="35" viewBox="0 0 35 35" fill="none" xmlns="http://www.w3.org/2000/svg">
<g clip-path="url(#clip0_4235_5840)">
<path d="M12.3958 0H6.5625C2.94438 0 0 2.94438 0 6.5625V12.3958C0 13.6019 0.981458 14.5833 2.1875 14.5833H12.3958C13.6019 14.5833 14.5833 13.6019 14.5833 12.3958V2.1875C14.5833 0.981458 13.6019 0 12.3958 0ZM13.125 12.3958C13.125 12.7983 12.7983 13.125 12.3958 13.125H2.1875C1.785 13.125 1.45833 12.7983 1.45833 12.3958V6.5625C1.45833 3.74792 3.74792 1.45833 6.5625 1.45833H12.3958C12.7983 1.45833 13.125 1.785 13.125 2.1875V12.3958ZM19.6875 14.5833H29.8958C31.1019 14.5833 32.0833 13.6019 32.0833 12.3958V6.5625C32.0833 2.94438 29.139 0 25.5208 0H19.6875C18.4815 0 17.5 0.981458 17.5 2.1875V12.3958C17.5 13.6019 18.4815 14.5833 19.6875 14.5833ZM18.9583 2.1875C18.9583 1.785 19.285 1.45833 19.6875 1.45833H25.5208C28.3354 1.45833 30.625 3.74792 30.625 6.5625V12.3958C30.625 12.7983 30.2983 13.125 29.8958 13.125H19.6875C19.285 13.125 18.9583 12.7983 18.9583 12.3958V2.1875ZM12.3958 17.5H2.1875C0.981458 17.5 0 18.4815 0 19.6875V25.5208C0 29.139 2.94438 32.0833 6.5625 32.0833H12.3958C13.6019 32.0833 14.5833 31.1019 14.5833 29.8958V19.6875C14.5833 18.4815 13.6019 17.5 12.3958 17.5ZM13.125 29.8958C13.125 30.2983 12.7983 30.625 12.3958 30.625H6.5625C3.74792 30.625 1.45833 28.3354 1.45833 25.5208V19.6875C1.45833 19.285 1.785 18.9583 2.1875 18.9583H12.3958C12.7983 18.9583 13.125 19.285 13.125 19.6875V29.8958ZM34.7871 33.7546L30.4121 29.3796C31.4402 28.1225 32.0833 26.5388 32.0833 24.7917C32.0833 20.771 28.8123 17.5 24.7917 17.5C20.771 17.5 17.5 20.771 17.5 24.7917C17.5 28.8123 20.771 32.0833 24.7917 32.0833C26.5388 32.0833 28.1225 31.4402 29.3796 30.4121L33.7546 34.7871C33.8975 34.93 34.0842 35 34.2708 35C34.4575 35 34.6442 34.9285 34.7871 34.7871C35.0715 34.5027 35.0715 34.039 34.7871 33.7546ZM24.7917 30.625C21.5746 30.625 18.9583 28.0088 18.9583 24.7917C18.9583 21.5746 21.5746 18.9583 24.7917 18.9583C28.0088 18.9583 30.625 21.5746 30.625 24.7917C30.625 28.0088 28.0088 30.625 24.7917 30.625Z" fill="white"/>
</g>
<defs>
<clipPath id="clip0_4235_5840">
<rect width="35" height="35" fill="white"/>
</clipPath>
</defs>
</svg>
