<svg width="38" height="41" viewBox="0 0 38 41" fill="none" xmlns="http://www.w3.org/2000/svg">
<ellipse cx="18.9981" cy="20.0606" rx="5.56839" ry="5.56839" stroke="#1C274C" stroke-width="3"/>
<path opacity="0.5" d="M22.2768 1.78258C21.5945 1.5 20.7297 1.5 19 1.5C17.2703 1.5 16.4055 1.5 15.7232 1.78258C14.8136 2.15935 14.091 2.88203 13.7142 3.79164C13.5422 4.20687 13.4749 4.68976 13.4485 5.39415C13.4098 6.42929 12.879 7.38745 11.9819 7.90538C11.0848 8.4233 9.9896 8.40396 9.07379 7.91991C8.4506 7.59052 7.99874 7.40737 7.55314 7.3487C6.57701 7.22019 5.58981 7.48471 4.80871 8.08407C4.22288 8.53359 3.79046 9.28257 2.92561 10.7805C2.06076 12.2785 1.62834 13.0275 1.53196 13.7596C1.40345 14.7357 1.66797 15.7229 2.26732 16.504C2.54089 16.8605 2.92537 17.1602 3.52209 17.5352C4.39932 18.0864 4.96375 19.0253 4.96369 20.0614C4.96364 21.0973 4.39922 22.0361 3.52208 22.5872C2.92527 22.9622 2.54074 23.2619 2.26714 23.6185C1.66778 24.3996 1.40326 25.3868 1.53177 26.3629C1.62816 27.095 2.06058 27.844 2.92543 29.342C3.79028 30.8399 4.2227 31.5889 4.80853 32.0384C5.58963 32.6378 6.57683 32.9023 7.55296 32.7738C7.99853 32.7151 8.45036 32.532 9.0735 32.2027C9.98938 31.7186 11.0847 31.6992 11.9818 32.2172C12.8789 32.7352 13.4098 33.6934 13.4485 34.7286C13.4749 35.4329 13.5422 35.9158 13.7142 36.331C14.091 37.2406 14.8136 37.9633 15.7232 38.3401C16.4055 38.6226 17.2703 38.6226 19 38.6226C20.7297 38.6226 21.5945 38.6226 22.2768 38.3401C23.1864 37.9633 23.909 37.2406 24.2858 36.331C24.4578 35.9157 24.5251 35.4328 24.5515 34.7284C24.5902 33.6933 25.121 32.7352 26.018 32.2172C26.9151 31.6992 28.0105 31.7185 28.9264 32.2026C29.5495 32.5319 30.0013 32.715 30.4469 32.7737C31.423 32.9022 32.4102 32.6377 33.1913 32.0383C33.7771 31.5888 34.2095 30.8398 35.0744 29.3418C35.9392 27.8439 36.3717 27.0949 36.468 26.3628C36.5966 25.3867 36.332 24.3995 35.7327 23.6184C35.4591 23.2618 35.0746 22.9621 34.4778 22.5871C33.6006 22.036 33.0363 21.0971 33.0363 20.0611C33.0364 19.0253 33.6007 18.0865 34.4778 17.5355C35.0747 17.1605 35.4592 16.8607 35.7329 16.5041C36.3322 15.723 36.5967 14.7358 36.4682 13.7597C36.3718 13.0276 35.9394 12.2786 35.0746 10.7807C34.2097 9.2827 33.7773 8.53371 33.1915 8.0842C32.4104 7.48484 31.4232 7.22032 30.447 7.34883C30.0015 7.40749 29.5496 7.59063 28.9265 7.91998C28.0106 8.40405 26.9153 8.4234 26.0182 7.90544C25.1211 7.38747 24.5902 6.42926 24.5515 5.39405C24.5251 4.68972 24.4578 4.20685 24.2858 3.79164C23.909 2.88203 23.1864 2.15935 22.2768 1.78258Z" stroke="#1C274C" stroke-width="3"/>
</svg>
