<svg width="30" height="30" viewBox="0 0 30 30" fill="none" xmlns="http://www.w3.org/2000/svg">
<path d="M28.3449 20.0175C28.1224 19.2125 27.5986 18.5425 26.8736 18.1313L25.9374 17.6025C26.1449 16.7375 26.2499 15.8637 26.2499 15C26.2499 14.1363 26.1449 13.2625 25.9374 12.3975L26.8724 11.8675C28.3711 11.0175 28.9011 9.1075 28.0511 7.61C27.6399 6.8825 26.9711 6.36 26.1661 6.13625C25.3624 5.9175 24.5186 6.0175 23.7924 6.42875L22.8536 6.96125C21.5236 5.66 19.9049 4.71625 18.1236 4.20125V3.125C18.1236 1.40125 16.7211 0 14.9986 0C13.2761 0 11.8736 1.40125 11.8736 3.125V4.20125C10.0924 4.71625 8.47362 5.66 7.14362 6.96125L6.20612 6.43C5.47987 6.0175 4.63862 5.9175 3.83237 6.13625C3.02737 6.36 2.35862 6.8825 1.94737 7.61C1.09862 9.1075 1.62737 11.0188 3.12612 11.8675L4.06112 12.3975C3.85362 13.2625 3.74862 14.1363 3.74862 15C3.74862 15.8637 3.85362 16.7375 4.06112 17.6025L3.12612 18.1313C2.39987 18.5425 1.87612 19.2125 1.65362 20.0175C1.43112 20.8225 1.53487 21.6638 1.94612 22.39C2.35737 23.1175 3.02612 23.64 3.83112 23.8637C4.63612 24.0837 5.47737 23.9838 6.20487 23.5713L7.14362 23.0387C8.47362 24.34 10.0924 25.2837 11.8736 25.7987V26.875C11.8736 28.5987 13.2761 30 14.9986 30C16.7211 30 18.1236 28.5987 18.1236 26.875V25.7987C19.9049 25.2837 21.5236 24.34 22.8536 23.0387L23.7911 23.57C24.5186 23.9838 25.3599 24.085 26.1649 23.8637C26.9699 23.64 27.6386 23.1175 28.0499 22.39C28.4611 21.6638 28.5649 20.8212 28.3424 20.0175H28.3449ZM26.9649 21.775C26.7186 22.2113 26.3161 22.525 25.8336 22.6588C25.3511 22.79 24.8449 22.73 24.4086 22.4813L23.0524 21.7138C22.8036 21.5763 22.4874 21.6213 22.2886 21.8313C20.9511 23.2575 19.2449 24.2525 17.3524 24.71C17.0724 24.7787 16.8749 25.03 16.8749 25.3175V26.875C16.8749 27.9088 16.0336 28.75 14.9999 28.75C13.9661 28.75 13.1249 27.9088 13.1249 26.875V25.3175C13.1249 25.03 12.9274 24.7775 12.6474 24.71C10.7549 24.2525 9.04862 23.2575 7.71112 21.8313C7.58987 21.7013 7.42362 21.6337 7.25487 21.6337C7.14987 21.6337 7.04362 21.66 6.94737 21.7138L5.58987 22.4825C5.15362 22.7288 4.64862 22.79 4.16612 22.6588C3.68362 22.525 3.28112 22.2113 3.03487 21.775C2.52612 20.875 2.84362 19.7288 3.74237 19.22L5.09612 18.4537C5.34737 18.3112 5.46737 18.015 5.38862 17.7387C5.12987 16.8287 4.99862 15.9088 4.99862 15.0013C4.99862 14.0938 5.12987 13.1725 5.38862 12.2637C5.46737 11.9862 5.34612 11.6912 5.09612 11.55L3.74237 10.7837C2.84237 10.2737 2.52487 9.1275 3.03487 8.2275C3.28112 7.79125 3.68362 7.4775 4.16612 7.34375C4.64862 7.2125 5.15487 7.2725 5.59112 7.52125L6.94737 8.28875C7.19862 8.42875 7.51487 8.3825 7.71112 8.17125C9.04737 6.745 10.7549 5.75 12.6474 5.2925C12.9274 5.22375 13.1249 4.9725 13.1249 4.685V3.1275C13.1249 2.09375 13.9661 1.2525 14.9999 1.2525C16.0336 1.2525 16.8749 2.09375 16.8749 3.1275V4.685C16.8749 4.9725 17.0724 5.225 17.3524 5.2925C19.2449 5.75 20.9511 6.745 22.2886 8.17125C22.4861 8.38125 22.8024 8.42625 23.0524 8.28875L24.4099 7.52C24.8461 7.27375 25.3511 7.2125 25.8336 7.34375C26.3161 7.4775 26.7186 7.79125 26.9649 8.2275C27.4749 9.1275 27.1561 10.2737 26.2574 10.7837L24.9036 11.55C24.6524 11.6912 24.5324 11.9875 24.6111 12.2637C24.8699 13.1737 25.0011 14.0938 25.0011 15.0013C25.0011 15.9088 24.8699 16.83 24.6111 17.7387C24.5324 18.0162 24.6536 18.3112 24.9036 18.4537L26.2574 19.22C26.6924 19.4663 27.0061 19.8688 27.1399 20.35C27.2736 20.8313 27.2111 21.3388 26.9636 21.775H26.9649ZM10.6336 15.0888L10.6249 9.37375C10.6249 9.03 10.3449 8.75 9.99987 8.75C9.65487 8.75 9.37487 9.03125 9.37612 9.37625L9.38487 15.0888C8.30987 15.3688 7.51112 16.3387 7.51112 17.5C7.51112 18.6613 8.30862 19.6288 9.38237 19.91L9.37737 20.62C9.37487 20.965 9.65237 21.2475 9.99737 21.25H10.0024C10.3449 21.25 10.6249 20.9725 10.6274 20.63L10.6324 19.9125C11.7099 19.6338 12.5111 18.6625 12.5111 17.5C12.5111 16.3375 11.7111 15.3675 10.6349 15.0888H10.6336ZM10.0099 18.75C9.32112 18.75 8.75987 18.19 8.75987 17.5C8.75987 16.81 9.32112 16.25 10.0099 16.25C10.6986 16.25 11.2599 16.81 11.2599 17.5C11.2599 18.19 10.6986 18.75 10.0099 18.75ZM20.6336 15.0888L20.6249 9.37375C20.6249 9.03 20.3449 8.75 19.9999 8.75C19.6549 8.75 19.3749 9.03125 19.3761 9.37625L19.3849 15.0888C18.3099 15.3688 17.5111 16.3387 17.5111 17.5C17.5111 18.6613 18.3086 19.6288 19.3824 19.91L19.3774 20.62C19.3749 20.965 19.6524 21.2475 19.9974 21.25H20.0024C20.3449 21.25 20.6249 20.9725 20.6274 20.63L20.6324 19.9125C21.7099 19.6338 22.5111 18.6625 22.5111 17.5C22.5111 16.3375 21.7099 15.3675 20.6336 15.0888ZM20.0099 18.75C19.3211 18.75 18.7599 18.19 18.7599 17.5C18.7599 16.81 19.3211 16.25 20.0099 16.25C20.6986 16.25 21.2599 16.81 21.2599 17.5C21.2599 18.19 20.6986 18.75 20.0099 18.75ZM15.6311 10.0875L15.6261 9.37C15.6236 9.0275 15.3436 8.75 15.0011 8.75H14.9961C14.6511 8.7525 14.3736 9.035 14.3761 9.38L14.3811 10.09C13.3074 10.3712 12.5099 11.34 12.5099 12.5C12.5099 13.66 13.3086 14.6312 14.3836 14.9112L14.3749 20.6238C14.3749 20.9688 14.6536 21.25 14.9986 21.25C15.3436 21.25 15.6236 20.97 15.6236 20.6262L15.6324 14.9112C16.7086 14.6325 17.5086 13.6613 17.5086 12.5C17.5086 11.3387 16.7074 10.3662 15.6299 10.0875H15.6311ZM15.0099 13.75C14.3211 13.75 13.7599 13.19 13.7599 12.5C13.7599 11.81 14.3211 11.25 15.0099 11.25C15.6986 11.25 16.2599 11.81 16.2599 12.5C16.2599 13.19 15.6986 13.75 15.0099 13.75Z" fill="#1C274C"/>
</svg>
