<svg width="30" height="30" viewBox="0 0 30 30" fill="none" xmlns="http://www.w3.org/2000/svg">
<g clip-path="url(#clip0_1743_4157)">
<path d="M30 15.625V14.375H23.7275C23.6463 13.225 23.3412 12.135 22.8562 11.15L28.2888 7.9875L27.66 6.90875L22.2263 10.0725C21.6075 9.16875 20.8238 8.385 19.9188 7.7675L23.0725 2.34375L21.9925 1.71625L18.8388 7.13875C17.8563 6.6575 16.77 6.35375 15.625 6.2725V0H14.375V6.2725C13.235 6.35375 12.155 6.65375 11.1762 7.13125L8.0275 1.71625L6.9475 2.34375L10.095 7.7575C9.18625 8.375 8.4 9.1575 7.77875 10.0637L2.36125 6.9075L1.7325 7.98625L7.14875 11.14C6.66125 12.1275 6.355 13.2213 6.2725 14.375H0V15.625H6.2725C6.35375 16.775 6.65875 17.865 7.145 18.8513L1.74125 21.9975L2.37 23.0763L7.775 19.9287C8.39 20.8275 9.16875 21.6062 10.0675 22.2225L6.91375 27.6463L7.99375 28.2737L11.1462 22.8538C12.1325 23.34 13.2238 23.6463 14.3763 23.7275V30H15.6263V23.7275C16.785 23.645 17.8812 23.3363 18.8725 22.8463L22.0287 28.275L23.1087 27.6475L19.9487 22.2137C20.8437 21.5975 21.62 20.82 22.2325 19.9213L27.6525 23.0763L28.2812 21.9975L22.8612 18.8425C23.3437 17.8588 23.6475 16.7725 23.7287 15.6263H30.0012L30 15.625ZM15 22.5C10.8637 22.5 7.5 19.1363 7.5 15C7.5 10.8637 10.8637 7.5 15 7.5C19.1363 7.5 22.5 10.8637 22.5 15C22.5 19.1363 19.1363 22.5 15 22.5Z" fill="white"/>
</g>
<defs>
<clipPath id="clip0_1743_4157">
<rect width="30" height="30" fill="white"/>
</clipPath>
</defs>
</svg>
