<svg width="30" height="30" viewBox="0 0 30 30" fill="none" xmlns="http://www.w3.org/2000/svg">
<g clip-path="url(#clip0_1743_4103)">
<path d="M26.875 0C25.1513 0 23.75 1.40125 23.75 3.125V17.5625C23.75 18.8975 24.27 20.1537 25.215 21.0987L26.4337 22.3175C26.5562 22.44 26.7162 22.5 26.8762 22.5C27.0362 22.5 27.1962 22.4388 27.3187 22.3175L28.5375 21.0987C29.4825 20.1537 30.0025 18.8975 30.0025 17.5625V3.125C30.0025 1.40125 28.6013 0 26.8775 0H26.875ZM28.75 17.5625C28.75 18.565 28.3588 19.5075 27.6513 20.215L26.875 20.9912L26.0987 20.215C25.3912 19.5075 25 18.565 25 17.5625V3.125C25 2.09125 25.8412 1.25 26.875 1.25C27.9088 1.25 28.75 2.09125 28.75 3.125V17.5625ZM3.9325 6.5125C3.68875 6.26875 3.68875 5.8725 3.9325 5.62875C4.17625 5.385 4.5725 5.385 4.81625 5.62875L6.5 7.31125C6.6225 7.43375 6.78375 7.5 6.955 7.5C7.12625 7.5 7.29 7.4325 7.41125 7.31125L10.5675 4.155C10.8113 3.91125 11.2075 3.91125 11.4513 4.155C11.695 4.39875 11.695 4.795 11.4513 5.03875L8.295 8.195C7.93625 8.55375 7.46125 8.75 6.955 8.75C6.45 8.75 5.97375 8.5525 5.6175 8.195L3.93375 6.5125H3.9325ZM8.295 15.695C7.93625 16.0537 7.46125 16.25 6.955 16.25C6.45 16.25 5.97375 16.0525 5.6175 15.695L3.93375 14.0125C3.69 13.7688 3.69 13.3725 3.93375 13.1288C4.1775 12.885 4.57375 12.885 4.8175 13.1288L6.50125 14.8112C6.62375 14.9337 6.785 15 6.95625 15C7.1275 15 7.29125 14.9325 7.4125 14.8112L10.5687 11.655C10.8125 11.4113 11.2087 11.4113 11.4525 11.655C11.6962 11.8988 11.6962 12.295 11.4525 12.5388L8.295 15.695ZM22.4988 23.75H21.2488V5C21.2488 2.2425 19.0062 0 16.2487 0H5C2.2425 0 0 2.2425 0 5V26.25C0 28.3175 1.6825 30 3.75 30H21.25C23.3175 30 25 28.3175 25 26.25C25 24.8712 23.8775 23.75 22.4988 23.75ZM3.74875 28.75C2.37 28.75 1.24875 27.6288 1.24875 26.25V5C1.24875 2.9325 2.93125 1.25 4.99875 1.25H16.2487C18.3162 1.25 19.9987 2.9325 19.9987 5V23.75H8.75C7.37125 23.75 6.25 24.8712 6.25 26.25C6.25 27.6288 5.1275 28.75 3.74875 28.75ZM21.2488 28.75H6.5425C7.1375 28.0862 7.5 27.21 7.5 26.25C7.5 25.56 8.06 25 8.75 25H22.5C23.19 25 23.75 25.56 23.75 26.25C23.75 27.6288 22.6275 28.75 21.2488 28.75Z" fill="white"/>
</g>
<defs>
<clipPath id="clip0_1743_4103">
<rect width="30" height="30" fill="white"/>
</clipPath>
</defs>
</svg>
