<svg width="512" height="512" viewBox="0 0 512 512" fill="none" xmlns="http://www.w3.org/2000/svg">
<g clip-path="url(#clip0_1734_4236)">
<path d="M493.371 18.752C468.405 -6.208 427.819 -6.208 402.853 18.752L259.734 161.835C243.602 177.941 234.725 199.381 234.725 222.165V256C234.725 267.776 244.264 277.333 256.064 277.333H289.907C312.697 277.333 334.142 268.437 350.253 252.331L493.371 109.248C518.21 85.4187 518.21 42.5813 493.371 18.752ZM463.198 79.0827L320.08 222.165C312.014 230.229 301.302 234.667 289.907 234.667H277.403V222.165C277.403 210.944 281.969 199.936 289.907 192L433.026 48.9173C441.369 40.5973 454.855 40.5973 463.198 48.9173C471.478 56.8533 471.478 71.1467 463.198 79.0827ZM256.064 384C244.264 384 234.725 374.464 234.725 362.667C234.725 350.869 244.264 341.333 256.064 341.333H320.08C331.88 341.333 341.419 350.869 341.419 362.667C341.419 374.464 331.88 384 320.08 384H256.064ZM426.773 298.667V405.333C426.773 464.149 378.911 512 320.08 512H106.693C47.8626 512 0 464.149 0 405.333V106.667C0 47.8507 47.8626 0 106.693 0H298.741C310.542 0 320.08 9.55733 320.08 21.3333C320.08 33.1093 310.542 42.6667 298.741 42.6667H106.693C71.3992 42.6667 42.6773 71.3813 42.6773 106.667V405.333C42.6773 440.619 71.3992 469.333 106.693 469.333H320.08C355.374 469.333 384.096 440.619 384.096 405.333V298.667C384.096 286.869 393.634 277.333 405.435 277.333C417.235 277.333 426.773 286.869 426.773 298.667ZM195.612 248.896L159.613 284.885C150.416 294.08 138.381 298.709 126.304 298.709C114.93 298.709 103.557 294.592 94.4876 286.293L80.2121 273.941C71.3138 266.219 70.3536 252.736 78.0569 243.84C85.8028 234.901 99.2675 234.005 108.166 241.685L122.868 254.443C125.066 256.427 127.733 256.405 129.419 254.72L165.417 218.731C173.761 210.389 187.247 210.389 195.59 218.731C203.934 227.072 203.955 240.555 195.612 248.896ZM195.612 143.083L159.613 179.072C150.416 188.267 138.381 192.896 126.304 192.896C114.93 192.896 103.557 188.779 94.4876 180.48L80.2121 168.128C71.3138 160.405 70.3536 146.923 78.0569 138.027C85.8028 129.109 99.2675 128.192 108.166 135.872L122.868 148.629C125.066 150.635 127.733 150.592 129.419 148.907L165.417 112.917C173.761 104.576 187.247 104.576 195.59 112.917C203.934 121.259 203.955 134.741 195.612 143.083ZM195.612 325.397C203.955 333.739 203.955 347.221 195.612 355.563L159.613 391.552C150.416 400.747 138.381 405.376 126.304 405.376C114.93 405.376 103.557 401.259 94.4876 392.96L80.2121 380.608C71.3138 372.885 70.3536 359.424 78.0569 350.507C85.8028 341.611 99.2675 340.651 108.166 348.352L122.868 361.109C125.066 363.093 127.733 363.072 129.419 361.387L165.417 325.397C173.761 317.056 187.268 317.056 195.612 325.397Z" fill="white"/>
</g>
<defs>
<clipPath id="clip0_1734_4236">
<rect width="512" height="512" fill="white"/>
</clipPath>
</defs>
</svg>
