<svg width="35" height="35" viewBox="0 0 35 35" fill="none" xmlns="http://www.w3.org/2000/svg">
<g clip-path="url(#clip0_4235_5848)">
<path d="M13.125 17.5C17.9506 17.5 21.875 13.5756 21.875 8.75C21.875 3.92438 17.9506 0 13.125 0C8.29938 0 4.375 3.92438 4.375 8.75C4.375 13.5756 8.29938 17.5 13.125 17.5ZM13.125 1.45833C17.1456 1.45833 20.4167 4.72938 20.4167 8.75C20.4167 12.7706 17.1456 16.0417 13.125 16.0417C9.10438 16.0417 5.83333 12.7706 5.83333 8.75C5.83333 4.72938 9.10438 1.45833 13.125 1.45833ZM31.3542 16.0417H22.6042C20.5931 16.0417 18.9583 17.6779 18.9583 19.6875V31.3542C18.9583 33.3638 20.5931 35 22.6042 35H31.3542C33.3652 35 35 33.3638 35 31.3542V19.6875C35 17.6779 33.3652 16.0417 31.3542 16.0417ZM33.5417 31.3542C33.5417 32.5602 32.5602 33.5417 31.3542 33.5417H22.6042C21.3981 33.5417 20.4167 32.5602 20.4167 31.3542V19.6875C20.4167 18.4815 21.3981 17.5 22.6042 17.5H31.3542C32.5602 17.5 33.5417 18.4815 33.5417 19.6875V31.3542ZM30.625 21.1415C30.625 21.544 30.2983 21.8706 29.8958 21.8706H24.0625C23.66 21.8706 23.3333 21.544 23.3333 21.1415C23.3333 20.739 23.66 20.4123 24.0625 20.4123H29.8958C30.2983 20.4123 30.625 20.739 30.625 21.1415ZM30.625 25.5208C30.625 25.9233 30.2983 26.25 29.8958 26.25H24.0625C23.66 26.25 23.3333 25.9233 23.3333 25.5208C23.3333 25.1183 23.66 24.7917 24.0625 24.7917H29.8958C30.2983 24.7917 30.625 25.1183 30.625 25.5208ZM30.625 29.8915C30.625 30.294 30.2983 30.6206 29.8958 30.6206H24.0625C23.66 30.6206 23.3333 30.294 23.3333 29.8915C23.3333 29.489 23.66 29.1623 24.0625 29.1623H29.8958C30.2983 29.1623 30.625 29.489 30.625 29.8915ZM16.03 21.4652C15.9585 21.8619 15.5765 22.1258 15.1856 22.0558C14.5075 21.9363 13.8148 21.875 13.125 21.875C6.69229 21.875 1.45833 27.109 1.45833 33.5417V34.2708C1.45833 34.6733 1.13167 35 0.729167 35C0.326667 35 0 34.6733 0 34.2708V33.5417C0 26.3054 5.88729 20.4167 13.125 20.4167C13.8994 20.4167 14.6781 20.4852 15.4394 20.6208C15.836 20.6908 16.1015 21.07 16.03 21.4667V21.4652Z" fill="#1C274C"/>
</g>
<defs>
<clipPath id="clip0_4235_5848">
<rect width="35" height="35" fill="white"/>
</clipPath>
</defs>
</svg>
