<svg width="30" height="30" viewBox="0 0 30 30" fill="none" xmlns="http://www.w3.org/2000/svg">
<path d="M22.7672 27.2371C23.011 27.4809 23.011 27.8771 22.7672 28.1221L22.3497 28.5397C21.3759 29.5135 20.0933 30.001 18.8133 30.001C17.5332 30.001 16.2532 29.5135 15.2781 28.5397C13.3281 26.5896 13.3281 23.4182 15.2781 21.4681L17.0457 19.7005C18.9958 17.7517 22.1659 17.7505 24.1173 19.7005C24.4885 20.0731 24.796 20.4956 25.0323 20.9568C25.1898 21.2644 25.0673 21.6406 24.7598 21.7981C24.4585 21.9544 24.0773 21.8356 23.9185 21.5256C23.741 21.1806 23.511 20.8631 23.2322 20.5843C21.7684 19.123 19.3896 19.123 17.9282 20.5843L16.1607 22.3519C14.6994 23.8145 14.6994 26.1933 16.1607 27.6559C17.6245 29.1172 20.0033 29.1159 21.4646 27.6559L21.8822 27.2384C22.1259 26.9946 22.5222 26.9946 22.7659 27.2384L22.7672 27.2371ZM28.5362 15.2154C26.6486 13.3265 23.3535 13.3265 21.4659 15.2154L21.0471 15.6341C20.8034 15.8779 20.8034 16.2742 21.0471 16.5179C21.2909 16.7617 21.6872 16.7617 21.9309 16.5179L22.3497 16.0991C23.766 14.6828 26.2361 14.6828 27.6524 16.0991C29.115 17.5617 29.115 19.9406 27.6524 21.4031L25.8848 23.1707C24.4673 24.587 21.9972 24.587 20.5821 23.1707C20.3033 22.8932 20.0721 22.5757 19.8946 22.2294C19.7358 21.9219 19.3571 21.8019 19.0533 21.9581C18.7458 22.1156 18.6233 22.4919 18.7808 22.7994C19.0183 23.2632 19.3271 23.6845 19.6971 24.0545C20.6409 24.9983 21.8972 25.5183 23.2322 25.5183C24.5673 25.5183 25.8223 24.9983 26.7674 24.0545L28.5349 22.2869C29.48 21.3419 30 20.0868 30 18.7505C30 17.4142 29.48 16.1592 28.5349 15.2141L28.5362 15.2154ZM3.75016 7.50129C3.75016 3.36487 7.11405 0.000976562 11.2505 0.000976562C15.3869 0.000976562 18.7508 3.36487 18.7508 7.50129C18.7508 11.6377 15.3869 15.0016 11.2505 15.0016C7.11405 15.0016 3.75016 11.6377 3.75016 7.50129ZM5.00021 7.50129C5.00021 10.9477 7.80408 13.7515 11.2505 13.7515C14.6969 13.7515 17.5007 10.9477 17.5007 7.50129C17.5007 4.0549 14.6969 1.25103 11.2505 1.25103C7.80408 1.25103 5.00021 4.0549 5.00021 7.50129ZM14.9731 18.778C15.0744 18.448 14.8906 18.098 14.5594 17.9967C13.4918 17.6692 12.378 17.5017 11.2517 17.5017C5.04646 17.5017 0 22.5494 0 28.7522V29.3772C0 29.7222 0.280012 30.0022 0.625026 30.0022C0.97004 30.0022 1.25005 29.7222 1.25005 29.3772V28.7522C1.25005 23.2382 5.73649 18.7518 11.2505 18.7518C12.253 18.7518 13.2431 18.8993 14.1931 19.1918C14.5206 19.293 14.8719 19.108 14.9731 18.778Z" fill="white"/>
</svg>
