<svg width="30" height="30" viewBox="0 0 30 30" fill="none" xmlns="http://www.w3.org/2000/svg">
<path d="M22.7672 27.2361C23.011 27.4799 23.011 27.8762 22.7672 28.1212L22.3497 28.5387C21.3759 29.5125 20.0933 30 18.8133 30C17.5332 30 16.2532 29.5125 15.2781 28.5387C13.3281 26.5886 13.3281 23.4172 15.2781 21.4671L17.0457 19.6996C18.9958 17.7507 22.1659 17.7495 24.1173 19.6996C24.4885 20.0721 24.796 20.4946 25.0323 20.9559C25.1898 21.2634 25.0673 21.6397 24.7598 21.7972C24.4585 21.9534 24.0773 21.8347 23.9185 21.5246C23.741 21.1796 23.511 20.8621 23.2322 20.5834C21.7684 19.122 19.3896 19.122 17.9282 20.5834L16.1607 22.3509C14.6994 23.8135 14.6994 26.1923 16.1607 27.6549C17.6245 29.1162 20.0033 29.115 21.4646 27.6549L21.8822 27.2374C22.1259 26.9936 22.5222 26.9936 22.7659 27.2374L22.7672 27.2361ZM28.5362 15.2144C26.6486 13.3256 23.3535 13.3256 21.4659 15.2144L21.0471 15.6332C20.8034 15.8769 20.8034 16.2732 21.0471 16.5169C21.2909 16.7607 21.6872 16.7607 21.9309 16.5169L22.3497 16.0982C23.766 14.6819 26.2361 14.6819 27.6524 16.0982C29.115 17.5607 29.115 19.9396 27.6524 21.4021L25.8848 23.1697C24.4673 24.586 21.9972 24.586 20.5821 23.1697C20.3033 22.8922 20.0721 22.5747 19.8946 22.2284C19.7358 21.9209 19.3571 21.8009 19.0533 21.9572C18.7458 22.1147 18.6233 22.4909 18.7808 22.7985C19.0183 23.2622 19.3271 23.6835 19.6971 24.0535C20.6409 24.9973 21.8972 25.5173 23.2322 25.5173C24.5673 25.5173 25.8223 24.9973 26.7674 24.0535L28.5349 22.2859C29.48 21.3409 30 20.0858 30 18.7495C30 17.4132 29.48 16.1582 28.5349 15.2131L28.5362 15.2144ZM3.75016 7.50031C3.75016 3.36389 7.11405 0 11.2505 0C15.3869 0 18.7508 3.36389 18.7508 7.50031C18.7508 11.6367 15.3869 15.0006 11.2505 15.0006C7.11405 15.0006 3.75016 11.6367 3.75016 7.50031ZM5.00021 7.50031C5.00021 10.9467 7.80408 13.7506 11.2505 13.7506C14.6969 13.7506 17.5007 10.9467 17.5007 7.50031C17.5007 4.05392 14.6969 1.25005 11.2505 1.25005C7.80408 1.25005 5.00021 4.05392 5.00021 7.50031ZM14.9731 18.777C15.0744 18.447 14.8906 18.097 14.5594 17.9957C13.4918 17.6682 12.378 17.5007 11.2517 17.5007C5.04646 17.5007 0 22.5484 0 28.7512V29.3762C0 29.7212 0.280012 30.0013 0.625026 30.0013C0.97004 30.0013 1.25005 29.7212 1.25005 29.3762V28.7512C1.25005 23.2372 5.73649 18.7508 11.2505 18.7508C12.253 18.7508 13.2431 18.8983 14.1931 19.1908C14.5206 19.2921 14.8719 19.107 14.9731 18.777Z" fill="#1C274C"/>
</svg>
