<svg width="512" height="513" viewBox="0 0 512 513" fill="none" xmlns="http://www.w3.org/2000/svg">
<path d="M192 256C262.592 256 320 198.592 320 128C320 57.408 262.592 0 192 0C121.408 0 64 57.408 64 128C64 198.592 121.408 256 192 256ZM192 42.6667C239.061 42.6667 277.333 80.9387 277.333 128C277.333 175.061 239.061 213.333 192 213.333C144.939 213.333 106.667 175.061 106.667 128C106.667 80.9387 144.939 42.6667 192 42.6667ZM229.333 346.027C217.216 342.912 204.651 341.333 192 341.333C109.653 341.333 42.6667 408.32 42.6667 490.667C42.6667 502.443 33.1093 512 21.3333 512C9.55733 512 0 502.443 0 490.667C0 384.811 86.144 298.667 192 298.667C208.256 298.667 224.405 300.693 240 304.725C251.413 307.669 258.261 319.296 255.339 330.709C252.416 342.123 240.832 348.971 229.355 346.048L229.333 346.027ZM493.248 253.419C469.056 229.227 426.901 229.227 402.731 253.419L259.648 396.501C243.541 412.608 234.645 434.048 234.645 456.853V490.688C234.645 502.464 244.203 512.021 255.979 512.021H289.813C312.619 512.021 334.037 503.125 350.144 487.019L493.227 343.936C505.323 331.84 511.979 315.776 511.979 298.667C511.979 281.557 505.323 265.493 493.248 253.419ZM463.061 313.749L319.957 456.832C311.915 464.896 301.205 469.333 289.792 469.333H277.291V456.832C277.291 445.44 281.728 434.731 289.792 426.667L432.896 283.584C440.939 275.52 454.997 275.52 463.061 283.584C467.093 287.595 469.312 292.949 469.312 298.667C469.312 304.384 467.093 309.717 463.061 313.749Z" fill="white"/>
</svg>
