<svg width="35" height="35" viewBox="0 0 35 35" fill="none" xmlns="http://www.w3.org/2000/svg">
<g clip-path="url(#clip0_4235_5830)">
<path d="M29.1667 11.6667C32.3838 11.6667 35 9.05042 35 5.83333C35 2.61625 32.3838 0 29.1667 0C25.9496 0 23.3333 2.61625 23.3333 5.83333C23.3333 9.05042 25.9496 11.6667 29.1667 11.6667ZM29.1667 1.45833C31.5788 1.45833 33.5417 3.42125 33.5417 5.83333C33.5417 8.24542 31.5788 10.2083 29.1667 10.2083C26.7546 10.2083 24.7917 8.24542 24.7917 5.83333C24.7917 3.42125 26.7546 1.45833 29.1667 1.45833ZM35 13.8542V22.6042C35 26.2223 32.0556 29.1667 28.4375 29.1667H18.2292V33.5417H25.5208C25.9233 33.5417 26.25 33.8683 26.25 34.2708C26.25 34.6733 25.9233 35 25.5208 35H9.47917C9.07667 35 8.75 34.6733 8.75 34.2708C8.75 33.8683 9.07667 33.5417 9.47917 33.5417H16.7708V29.1667H6.5625C2.94438 29.1667 0 26.2223 0 22.6042V9.47917C0 5.86104 2.94438 2.91667 6.5625 2.91667H19.6875C20.09 2.91667 20.4167 3.24333 20.4167 3.64583C20.4167 4.04833 20.09 4.375 19.6875 4.375H6.5625C3.74792 4.375 1.45833 6.66458 1.45833 9.47917V22.6042C1.45833 25.4188 3.74792 27.7083 6.5625 27.7083H28.4375C31.2521 27.7083 33.5417 25.4188 33.5417 22.6042V13.8542C33.5417 13.4517 33.8683 13.125 34.2708 13.125C34.6733 13.125 35 13.4517 35 13.8542ZM18.5617 14.2625L17.1763 15.2848C16.606 14.0146 15.3344 13.1235 13.8542 13.1235H8.02083C6.01125 13.1235 4.375 14.7583 4.375 16.7694V21.1444C4.375 23.1554 6.01125 24.7902 8.02083 24.7902H13.8542C15.3344 24.7902 16.6075 23.8992 17.1777 22.629L18.5631 23.6527C18.9292 23.924 19.3608 24.0596 19.7954 24.0596C20.9096 24.0785 21.9013 23.1029 21.8765 21.98V15.9337C21.8765 15.1448 21.439 14.4346 20.7346 14.0788C20.0317 13.7215 19.199 13.7944 18.5631 14.2625H18.5617ZM13.8542 23.3333H8.02083C6.81479 23.3333 5.83333 22.3519 5.83333 21.1458V16.7708C5.83333 15.5648 6.81479 14.5833 8.02083 14.5833H13.8542C15.0602 14.5833 16.0417 15.5648 16.0417 16.7708V21.1458C16.0417 22.3519 15.0602 23.3333 13.8542 23.3333ZM20.0769 15.381C20.179 15.4321 20.4167 15.591 20.4167 15.9352V21.9815C20.4167 22.3256 20.1775 22.4831 20.0754 22.5356C19.9733 22.5867 19.7035 22.6858 19.4279 22.4802L17.5 21.054V16.8598L19.4279 15.4365C19.705 15.2308 19.9733 15.33 20.0769 15.381Z" fill="#1C274C"/>
</g>
<defs>
<clipPath id="clip0_4235_5830">
<rect width="35" height="35" fill="white"/>
</clipPath>
</defs>
</svg>
