<svg width="196" height="80" viewBox="0 0 196 80" fill="none" xmlns="http://www.w3.org/2000/svg">
<path d="M9.9785 79.7673H2.1793C1.88086 79.7673 1.60079 79.7107 1.33909 79.5959C1.07279 79.4811 0.841685 79.3265 0.642726 79.1306C0.443767 78.9347 0.286129 78.7052 0.172875 78.4389C0.0580909 78.1772 0.00146484 77.8971 0.00146484 77.5987V71.4707H1.75996V77.5987C1.75996 77.7088 1.79975 77.8068 1.88086 77.8925C1.96198 77.9767 2.06146 78.0195 2.1793 78.0195H9.9785V79.7673Z" fill="url(#paint0_linear_4309_112)"/>
<path d="M27.0429 77.5772C27.0429 77.8803 26.9862 78.1634 26.8714 78.4297C26.7536 78.6944 26.5944 78.9271 26.3955 79.126C26.1965 79.325 25.9639 79.4826 25.6991 79.5959C25.4298 79.7107 25.1436 79.7673 24.8421 79.7673H18.858C18.555 79.7673 18.2718 79.7107 18.0071 79.5959C17.7408 79.4811 17.5097 79.325 17.3107 79.126C17.1117 78.9271 16.9541 78.6944 16.8408 78.4297C16.7261 78.1634 16.6694 77.8803 16.6694 77.5772V73.6715C16.6694 73.3685 16.7261 73.0838 16.8408 72.8144C16.9556 72.5497 17.1117 72.317 17.3107 72.1181C17.5097 71.9191 17.7423 71.76 18.0071 71.6421C18.2718 71.5273 18.5565 71.4707 18.858 71.4707H24.8421C25.1451 71.4707 25.4298 71.5273 25.6991 71.6421C25.9639 71.76 26.1965 71.9191 26.3955 72.1181C26.5944 72.317 26.7536 72.5497 26.8714 72.8144C26.9862 73.0838 27.0429 73.37 27.0429 73.6715V77.5772ZM25.2844 73.6715C25.2844 73.5506 25.2415 73.445 25.1573 73.3562C25.0686 73.272 24.963 73.2292 24.8421 73.2292H18.858C18.7401 73.2292 18.6391 73.272 18.5534 73.3562C18.4677 73.445 18.4264 73.5506 18.4264 73.6715V77.5772C18.4264 77.6981 18.4692 77.8022 18.5534 77.8864C18.6376 77.9751 18.7401 78.0195 18.858 78.0195H24.8421C24.963 78.0195 25.0686 77.9751 25.1573 77.8864C25.2415 77.8022 25.2844 77.6981 25.2844 77.5772V73.6715Z" fill="url(#paint1_linear_4309_112)"/>
<path d="M43.7102 79.7673H35.911C35.6125 79.7673 35.3325 79.7107 35.0708 79.5959C34.8045 79.4811 34.5734 79.3265 34.3744 79.1306C34.1755 78.9347 34.0178 78.7052 33.9046 78.4389C33.7898 78.1772 33.7332 77.8971 33.7332 77.5987V73.6501C33.7332 73.3516 33.7898 73.0685 33.9046 72.8037C34.0193 72.542 34.1755 72.3109 34.3744 72.112C34.5734 71.913 34.806 71.7569 35.0708 71.6421C35.3325 71.5273 35.6125 71.4707 35.911 71.4707H43.7102V73.2292H35.911C35.7931 73.2292 35.6937 73.2705 35.6125 73.3501C35.5314 73.4312 35.4916 73.5307 35.4916 73.6485V77.5971C35.4916 77.7073 35.5314 77.8052 35.6125 77.891C35.6937 77.9751 35.7931 78.018 35.911 78.018H41.9517V74.7443H43.7102V79.7673Z" fill="url(#paint2_linear_4309_112)"/>
<path d="M52.1579 79.7673H50.3994V71.4707H52.1579V79.7673Z" fill="url(#paint3_linear_4309_112)"/>
<path d="M68.8229 79.7673H61.0237C60.7252 79.7673 60.4451 79.7107 60.1834 79.5959C59.9171 79.4811 59.686 79.3265 59.4871 79.1306C59.2881 78.9347 59.1305 78.7052 59.0172 78.4389C58.9025 78.1772 58.8458 77.8971 58.8458 77.5987V73.6501C58.8458 73.3516 58.9025 73.0685 59.0172 72.8037C59.132 72.542 59.2881 72.3109 59.4871 72.112C59.686 71.913 59.9187 71.7569 60.1834 71.6421C60.4451 71.5273 60.7252 71.4707 61.0237 71.4707H68.8229V73.2292H61.0237C60.9058 73.2292 60.8063 73.2705 60.7252 73.3501C60.6441 73.4312 60.6043 73.5307 60.6043 73.6485V77.5971C60.6043 77.7073 60.6441 77.8052 60.7252 77.891C60.8063 77.9751 60.9058 78.018 61.0237 78.018H68.8229V79.7673Z" fill="url(#paint4_linear_4309_112)"/>
<path d="M85.8908 77.5772C85.8908 77.8803 85.8341 78.1634 85.7194 78.4297C85.6015 78.6944 85.4423 78.9271 85.2434 79.126C85.0444 79.325 84.8118 79.4826 84.547 79.5959C84.2777 79.7107 83.9915 79.7673 83.69 79.7673H77.7059C77.4029 79.7673 77.1197 79.7107 76.855 79.5959C76.5902 79.4811 76.3576 79.325 76.1586 79.126C75.9596 78.9271 75.802 78.6944 75.6887 78.4297C75.574 78.1634 75.5173 77.8803 75.5173 77.5772V73.6715C75.5173 73.3685 75.574 73.0838 75.6887 72.8144C75.8035 72.5497 75.9596 72.317 76.1586 72.1181C76.3576 71.9191 76.5902 71.76 76.855 71.6421C77.1197 71.5273 77.4044 71.4707 77.7059 71.4707H83.69C83.993 71.4707 84.2777 71.5273 84.547 71.6421C84.8133 71.76 85.0444 71.9191 85.2434 72.1181C85.4423 72.317 85.6015 72.5497 85.7194 72.8144C85.8341 73.0838 85.8908 73.37 85.8908 73.6715V77.5772ZM84.1323 73.6715C84.1323 73.5506 84.0894 73.445 84.0052 73.3562C83.9165 73.272 83.8124 73.2292 83.69 73.2292H77.7059C77.588 73.2292 77.487 73.272 77.4013 73.3562C77.3156 73.445 77.2743 73.5506 77.2743 73.6715V77.5772C77.2743 77.6981 77.3171 77.8022 77.4013 77.8864C77.4855 77.9751 77.588 78.0195 77.7059 78.0195H83.69C83.8124 78.0195 83.9165 77.9751 84.0052 77.8864C84.0894 77.8022 84.1323 77.6981 84.1323 77.5772V73.6715Z" fill="url(#paint5_linear_4309_112)"/>
<path d="M102.954 79.7673H101.196V73.7159C101.196 73.6501 101.182 73.5873 101.157 73.5276C101.131 73.4695 101.096 73.4175 101.052 73.3731C101.008 73.3287 100.955 73.2935 100.897 73.2675C100.838 73.2414 100.775 73.2292 100.709 73.2292H92.5778V71.4707H100.709C101.015 71.4707 101.304 71.5304 101.577 71.6482C101.849 71.7661 102.09 71.9268 102.296 72.1288C102.5 72.3354 102.659 72.5757 102.777 72.8481C102.895 73.1205 102.954 73.4098 102.954 73.7159V79.7673ZM94.3378 79.7673H92.5793V74.7443H94.3378V79.7673Z" fill="url(#paint6_linear_4309_112)"/>
<path d="M120.022 79.7673H118.264V73.7159C118.264 73.6501 118.25 73.5873 118.225 73.5276C118.199 73.4695 118.164 73.4175 118.12 73.3731C118.075 73.3287 118.023 73.2935 117.965 73.2675C117.905 73.2414 117.843 73.2292 117.777 73.2292H109.646V71.4707H117.777C118.083 71.4707 118.372 71.5304 118.645 71.6482C118.917 71.7661 119.157 71.9268 119.364 72.1288C119.568 72.3354 119.727 72.5757 119.845 72.8481C119.962 73.1205 120.022 73.4098 120.022 73.7159V79.7673ZM111.404 79.7673H109.646V74.7443H111.404V79.7673Z" fill="url(#paint7_linear_4309_112)"/>
<path d="M128.467 79.7684H126.708V78.0206H128.467V79.7684Z" fill="url(#paint8_linear_4309_112)"/>
<path d="M145.523 73.2292H135.157V71.4707H145.523V73.2292ZM141.219 79.7673H139.461V74.7443H141.219V79.7673Z" fill="url(#paint9_linear_4309_112)"/>
<path d="M162.268 73.2292H152.213V71.4707H162.268V73.2292ZM162.268 79.7673H152.213V74.7443H162.268V76.5028H153.971V78.018H162.268V79.7673Z" fill="url(#paint10_linear_4309_112)"/>
<path d="M178.934 79.7673H171.135C170.836 79.7673 170.556 79.7107 170.295 79.5959C170.03 79.4811 169.797 79.3265 169.598 79.1306C169.399 78.9347 169.242 78.7052 169.128 78.4389C169.014 78.1772 168.957 77.8971 168.957 77.5987V73.6501C168.957 73.3516 169.014 73.0685 169.128 72.8037C169.243 72.542 169.399 72.3109 169.598 72.112C169.797 71.913 170.03 71.7569 170.295 71.6421C170.556 71.5273 170.836 71.4707 171.135 71.4707H178.934V73.2292H171.135C171.017 73.2292 170.918 73.2705 170.836 73.3501C170.755 73.4312 170.716 73.5307 170.716 73.6485V77.5971C170.716 77.7073 170.755 77.8052 170.836 77.891C170.918 77.9751 171.017 78.018 171.135 78.018H178.934V79.7673Z" fill="url(#paint11_linear_4309_112)"/>
<path d="M195.999 79.7673H194.24V76.5044H187.381V79.7673H185.622V74.7443H194.24V71.4707H195.999V79.7673ZM187.382 73.2292H185.624V71.4707H187.382V73.2292Z" fill="url(#paint12_linear_4309_112)"/>
<path d="M23.0578 64.2692H5.0352C4.34496 64.2692 3.69758 64.1376 3.09305 63.8729C2.47934 63.6081 1.94214 63.2515 1.48301 62.7985C1.02234 62.347 0.661156 61.8144 0.396387 61.2007C0.131619 60.5962 0 59.9472 0 59.2585V45.0957H4.06489V59.2585C4.06489 59.5141 4.15825 59.7406 4.34649 59.9365C4.53321 60.1324 4.7643 60.2304 5.03672 60.2304H23.0594V64.2692H23.0578Z" fill="url(#paint13_linear_4309_112)"/>
<path d="M50.8721 59.2065C50.8721 59.9059 50.7405 60.561 50.4757 61.1747C50.2033 61.7884 49.836 62.3256 49.3769 62.7847C48.9177 63.2438 48.3805 63.6066 47.7668 63.8713C47.1439 64.1361 46.4843 64.2677 45.7849 64.2677H31.9542C31.2547 64.2677 30.5997 64.1361 29.986 63.8713C29.3723 63.6066 28.8351 63.2454 28.376 62.7847C27.9168 62.324 27.5541 61.7884 27.2893 61.1747C27.0246 60.561 26.8929 59.9044 26.8929 59.2065V50.1829C26.8929 49.485 27.0246 48.8239 27.2893 48.201C27.5541 47.5873 27.9153 47.0501 28.376 46.591C28.8366 46.1303 29.3723 45.7645 29.986 45.4921C30.5997 45.2288 31.2563 45.0957 31.9542 45.0957H45.7849C46.4843 45.0957 47.1439 45.2273 47.7668 45.4921C48.3805 45.7645 48.9177 46.1318 49.3769 46.591C49.8375 47.0516 50.2033 47.5873 50.4757 48.201C50.7405 48.8224 50.8721 49.4835 50.8721 50.1829V59.2065ZM46.8072 50.1829C46.8072 49.9013 46.7093 49.6595 46.5134 49.4544C46.3083 49.2585 46.0665 49.1606 45.7849 49.1606H31.9542C31.6817 49.1606 31.4476 49.2585 31.2517 49.4544C31.0558 49.6595 30.9578 49.9013 30.9578 50.1829V59.2065C30.9578 59.4881 31.0558 59.7268 31.2517 59.9227C31.4476 60.1278 31.6817 60.2288 31.9542 60.2288H45.7849C46.0665 60.2288 46.3083 60.1263 46.5134 59.9227C46.7093 59.7268 46.8072 59.4881 46.8072 59.2065V50.1829Z" fill="url(#paint14_linear_4309_112)"/>
<path d="M77.7663 64.2692H59.7436C59.0534 64.2692 58.406 64.1376 57.8 63.8729C57.1862 63.6081 56.6491 63.2515 56.1899 62.7985C55.7293 62.347 55.3681 61.8144 55.1033 61.2007C54.8385 60.5962 54.7069 59.9472 54.7069 59.2585V50.1324C54.7069 49.4422 54.8385 48.7902 55.1033 48.1765C55.3681 47.572 55.7293 47.0394 56.1899 46.5787C56.6506 46.118 57.1862 45.7569 57.8 45.4921C58.4045 45.2288 59.0534 45.0957 59.7436 45.0957H77.7663V49.1606H59.7436C59.4712 49.1606 59.2401 49.2539 59.0534 49.4422C58.8652 49.6304 58.7718 49.86 58.7718 50.1324V59.2585C58.7718 59.5141 58.8652 59.7406 59.0534 59.9365C59.2401 60.1324 59.4712 60.2304 59.7436 60.2304H73.7014V52.6638H77.7663V64.2692Z" fill="url(#paint15_linear_4309_112)"/>
<path d="M112.558 64.2692H94.5354C93.8451 64.2692 93.1978 64.1376 92.5917 63.8729C91.978 63.6081 91.4408 63.2515 90.9817 62.7985C90.521 62.347 90.1598 61.8144 89.895 61.2007C89.6303 60.5962 89.4987 59.9472 89.4987 59.2585V50.1324C89.4987 49.4422 89.6303 48.7902 89.895 48.1765C90.1598 47.572 90.521 47.0394 90.9817 46.5787C91.4423 46.118 91.978 45.7569 92.5917 45.4921C93.1962 45.2288 93.8451 45.0957 94.5354 45.0957H112.558V49.1606H94.5354C94.263 49.1606 94.0319 49.2539 93.8451 49.4422C93.6569 49.6304 93.5635 49.86 93.5635 50.1324V59.2585C93.5635 59.5141 93.6569 59.7406 93.8451 59.9365C94.0319 60.1324 94.263 60.2304 94.5354 60.2304H112.558V64.2692Z" fill="url(#paint16_linear_4309_112)"/>
<path d="M140.372 59.2065C140.372 59.9059 140.24 60.561 139.976 61.1747C139.703 61.7884 139.336 62.3256 138.877 62.7847C138.416 63.2454 137.881 63.6066 137.267 63.8713C136.644 64.1361 135.984 64.2677 135.285 64.2677H121.454C120.755 64.2677 120.1 64.1361 119.486 63.8713C118.872 63.6066 118.335 63.2454 117.876 62.7847C117.415 62.324 117.054 61.7884 116.789 61.1747C116.525 60.561 116.393 59.9044 116.393 59.2065V50.1829C116.393 49.485 116.525 48.8239 116.789 48.201C117.054 47.5873 117.415 47.0501 117.876 46.591C118.337 46.1303 118.872 45.7645 119.486 45.4921C120.1 45.2288 120.756 45.0957 121.454 45.0957H135.285C135.983 45.0957 136.644 45.2273 137.267 45.4921C137.881 45.7645 138.418 46.1318 138.877 46.591C139.338 47.0516 139.703 47.5873 139.976 48.201C140.239 48.8224 140.372 49.4835 140.372 50.1829V59.2065ZM136.307 50.1829C136.307 49.9013 136.209 49.6595 136.013 49.4544C135.808 49.2585 135.566 49.1606 135.285 49.1606H121.454C121.182 49.1606 120.948 49.2585 120.752 49.4544C120.556 49.6595 120.458 49.9013 120.458 50.1829V59.2065C120.458 59.4881 120.556 59.7268 120.752 59.9227C120.948 60.1278 121.182 60.2288 121.454 60.2288H135.285C135.566 60.2288 135.808 60.1263 136.013 59.9227C136.209 59.7268 136.307 59.4881 136.307 59.2065V50.1829Z" fill="url(#paint17_linear_4309_112)"/>
<path d="M168.187 64.2692H164.122V50.2855C164.122 50.1324 164.093 49.987 164.033 49.8508C163.973 49.7146 163.892 49.5952 163.79 49.4927C163.687 49.3902 163.568 49.309 163.432 49.2494C163.295 49.1897 163.15 49.1606 162.997 49.1606H144.208V45.0957H162.997C163.704 45.0957 164.373 45.2319 165.003 45.5043C165.634 45.7768 166.188 46.1487 166.666 46.617C167.134 47.0945 167.504 47.6485 167.778 48.279C168.051 48.9096 168.187 49.5784 168.187 50.2855V64.2692ZM148.273 64.2692H144.208V52.6638H148.273V64.2692Z" fill="url(#paint18_linear_4309_112)"/>
<path d="M196 64.2692H191.935V50.2855C191.935 50.1324 191.906 49.987 191.846 49.8508C191.787 49.7146 191.705 49.5952 191.603 49.4927C191.5 49.3902 191.381 49.309 191.245 49.2494C191.109 49.1897 190.963 49.1606 190.81 49.1606H172.021V45.0957H190.81C191.517 45.0957 192.186 45.2319 192.817 45.5043C193.447 45.7768 194.001 46.1487 194.479 46.617C194.947 47.0945 195.317 47.6485 195.591 48.279C195.864 48.9096 196 49.5784 196 50.2855V64.2692ZM176.086 64.2692H172.021V52.6638H176.086V64.2692Z" fill="url(#paint19_linear_4309_112)"/>
<path d="M86.7351 45.0039C83.6298 53.553 83.466 61.3002 83.5318 64.8279C82.4988 61.8894 80.2 54.2356 82.0595 45.0039H86.7351Z" fill="url(#paint20_linear_4309_112)"/>
<path d="M94.0815 12.675C91.3847 11.2897 86.006 8.99466 78.9228 9.06427C69.6246 9.15497 63.0245 13.2672 60.5416 15.0022C62.5175 14.2404 64.965 13.4727 67.8201 12.9418C70.4239 12.4583 72.772 12.285 74.7523 12.2577C75.4429 13.4183 77.1647 15.9091 80.2996 17.0788C84.7866 18.7508 90.3079 17.0258 94.0815 12.675Z" fill="url(#paint21_linear_4309_112)"/>
<path d="M112.076 7.54884C112.06 7.53965 112.045 7.53047 112.031 7.52129C106.332 3.98135 100.152 4.88738 97.9834 5.31437C96.6473 4.35019 95.302 3.55741 93.969 2.90544C77.5564 -5.1218 57.7048 5.66331 51.8248 9.12673C61.733 4.91186 78.6813 -0.225874 94.37 6.7178C95.4367 7.18918 96.508 7.72331 97.5809 8.32325C101.399 7.94828 109.046 7.73556 112.431 12.3376C112.572 12.5289 112.706 12.7294 112.832 12.9391C113.25 14.3226 113.684 16.3275 113.635 18.7594C113.57 21.9688 112.691 24.4833 112.03 25.9847C112.994 24.9991 115.18 22.4983 116.044 18.5589C116.283 17.4738 116.382 16.4469 116.396 15.5057C116.441 12.2871 114.805 9.25529 112.076 7.54884Z" fill="url(#paint22_linear_4309_112)"/>
<path d="M87.8872 41.9978C88.7137 39.1497 90.9604 32.8518 96.8955 27.2902C102.278 22.2473 108.013 20.322 110.867 19.569C107.854 19.1298 101.847 18.6645 94.8722 21.0398C87.7296 23.4717 83.1903 27.6514 81.0844 29.8644C82.2337 29.1451 83.9693 28.2375 86.2313 27.659C88.3785 27.1096 90.2457 27.0483 91.5634 27.108C90.1278 28.5528 88.504 30.4352 86.9674 32.8075C84.7375 36.2494 83.4765 39.5154 82.7388 41.9994C84.4559 41.9978 86.1716 41.9978 87.8872 41.9978Z" fill="url(#paint23_linear_4309_112)"/>
<defs>
<linearGradient id="paint0_linear_4309_112" x1="4.98862" y1="68.8077" x2="4.98862" y2="79.6126" gradientUnits="userSpaceOnUse">
<stop stop-color="#969696"/>
<stop offset="1" stop-color="#545454"/>
</linearGradient>
<linearGradient id="paint1_linear_4309_112" x1="21.8546" y1="68.8077" x2="21.8546" y2="79.6126" gradientUnits="userSpaceOnUse">
<stop stop-color="#969696"/>
<stop offset="1" stop-color="#545454"/>
</linearGradient>
<linearGradient id="paint2_linear_4309_112" x1="38.7214" y1="68.8077" x2="38.7214" y2="79.6126" gradientUnits="userSpaceOnUse">
<stop stop-color="#969696"/>
<stop offset="1" stop-color="#545454"/>
</linearGradient>
<linearGradient id="paint3_linear_4309_112" x1="51.2785" y1="68.8077" x2="51.2785" y2="79.6126" gradientUnits="userSpaceOnUse">
<stop stop-color="#969696"/>
<stop offset="1" stop-color="#545454"/>
</linearGradient>
<linearGradient id="paint4_linear_4309_112" x1="63.8342" y1="68.8077" x2="63.8342" y2="79.6126" gradientUnits="userSpaceOnUse">
<stop stop-color="#969696"/>
<stop offset="1" stop-color="#545454"/>
</linearGradient>
<linearGradient id="paint5_linear_4309_112" x1="80.7023" y1="68.8077" x2="80.7023" y2="79.6126" gradientUnits="userSpaceOnUse">
<stop stop-color="#969696"/>
<stop offset="1" stop-color="#545454"/>
</linearGradient>
<linearGradient id="paint6_linear_4309_112" x1="97.7664" y1="68.8077" x2="97.7664" y2="79.6126" gradientUnits="userSpaceOnUse">
<stop stop-color="#969696"/>
<stop offset="1" stop-color="#545454"/>
</linearGradient>
<linearGradient id="paint7_linear_4309_112" x1="114.833" y1="68.8077" x2="114.833" y2="79.6126" gradientUnits="userSpaceOnUse">
<stop stop-color="#969696"/>
<stop offset="1" stop-color="#545454"/>
</linearGradient>
<linearGradient id="paint8_linear_4309_112" x1="127.588" y1="68.8089" x2="127.588" y2="79.6137" gradientUnits="userSpaceOnUse">
<stop stop-color="#969696"/>
<stop offset="1" stop-color="#545454"/>
</linearGradient>
<linearGradient id="paint9_linear_4309_112" x1="140.34" y1="68.8077" x2="140.34" y2="79.6126" gradientUnits="userSpaceOnUse">
<stop stop-color="#969696"/>
<stop offset="1" stop-color="#545454"/>
</linearGradient>
<linearGradient id="paint10_linear_4309_112" x1="157.24" y1="68.8077" x2="157.24" y2="79.6126" gradientUnits="userSpaceOnUse">
<stop stop-color="#969696"/>
<stop offset="1" stop-color="#545454"/>
</linearGradient>
<linearGradient id="paint11_linear_4309_112" x1="173.945" y1="68.8077" x2="173.945" y2="79.6126" gradientUnits="userSpaceOnUse">
<stop stop-color="#969696"/>
<stop offset="1" stop-color="#545454"/>
</linearGradient>
<linearGradient id="paint12_linear_4309_112" x1="190.811" y1="68.8077" x2="190.811" y2="79.6126" gradientUnits="userSpaceOnUse">
<stop stop-color="#969696"/>
<stop offset="1" stop-color="#545454"/>
</linearGradient>
<linearGradient id="paint13_linear_4309_112" x1="11.5289" y1="39.681" x2="11.5289" y2="58.9379" gradientUnits="userSpaceOnUse">
<stop stop-color="#10ADF3"/>
<stop offset="1" stop-color="#013A72"/>
</linearGradient>
<linearGradient id="paint14_linear_4309_112" x1="38.8824" y1="39.681" x2="38.8824" y2="58.9379" gradientUnits="userSpaceOnUse">
<stop stop-color="#10ADF3"/>
<stop offset="1" stop-color="#013A72"/>
</linearGradient>
<linearGradient id="paint15_linear_4309_112" x1="66.237" y1="39.681" x2="66.237" y2="58.9379" gradientUnits="userSpaceOnUse">
<stop stop-color="#10ADF3"/>
<stop offset="1" stop-color="#013A72"/>
</linearGradient>
<linearGradient id="paint16_linear_4309_112" x1="101.028" y1="39.681" x2="101.028" y2="58.9379" gradientUnits="userSpaceOnUse">
<stop stop-color="#10ADF3"/>
<stop offset="1" stop-color="#013A72"/>
</linearGradient>
<linearGradient id="paint17_linear_4309_112" x1="128.383" y1="39.681" x2="128.383" y2="58.9379" gradientUnits="userSpaceOnUse">
<stop stop-color="#10ADF3"/>
<stop offset="1" stop-color="#013A72"/>
</linearGradient>
<linearGradient id="paint18_linear_4309_112" x1="156.197" y1="39.681" x2="156.197" y2="58.9379" gradientUnits="userSpaceOnUse">
<stop stop-color="#10ADF3"/>
<stop offset="1" stop-color="#013A72"/>
</linearGradient>
<linearGradient id="paint19_linear_4309_112" x1="184.011" y1="39.681" x2="184.011" y2="58.9379" gradientUnits="userSpaceOnUse">
<stop stop-color="#10ADF3"/>
<stop offset="1" stop-color="#013A72"/>
</linearGradient>
<linearGradient id="paint20_linear_4309_112" x1="84.2839" y1="41.8903" x2="83.635" y2="59.1498" gradientUnits="userSpaceOnUse">
<stop stop-color="#10ADF3"/>
<stop offset="1" stop-color="#013A72"/>
</linearGradient>
<linearGradient id="paint21_linear_4309_112" x1="107.56" y1="16.0598" x2="66.7362" y2="11.769" gradientUnits="userSpaceOnUse">
<stop stop-color="#10ADF3"/>
<stop offset="1" stop-color="#013A72"/>
</linearGradient>
<linearGradient id="paint22_linear_4309_112" x1="107.728" y1="12.9913" x2="66.6788" y2="12.9913" gradientUnits="userSpaceOnUse">
<stop stop-color="#10ADF3"/>
<stop offset="1" stop-color="#013A72"/>
</linearGradient>
<linearGradient id="paint23_linear_4309_112" x1="101.144" y1="18.221" x2="86.3498" y2="36.8213" gradientUnits="userSpaceOnUse">
<stop stop-color="#969696"/>
<stop offset="1" stop-color="#545454"/>
</linearGradient>
</defs>
</svg>
